<svg xmlns="http://www.w3.org/2000/svg" xmlns:xlink="http://www.w3.org/1999/xlink" version="1.1" id="Layer_1" x="0px" y="0px" width="77.693px" height="95.772px" viewBox="0 0 77.693 95.772" enable-background="new 0 0 77.693 95.772" xml:space="preserve">
<g>
	<path fill="#918F8A" d="M0.567 1.09h2.073c1.148 0 1.8 0.7 1.8 1.59c0 0.952-0.638 1.652-1.786 1.652H1.506v1.576H0.567V1.09 z M1.506 1.846v1.73h1.051c0.609 0 0.917-0.371 0.917-0.883c0-0.504-0.308-0.848-0.917-0.848H1.506z"/>
	<path fill="#918F8A" d="M6.061 1.09h2.066c1.155 0 1.8 0.6 1.8 1.499c0 0.686-0.35 1.226-1.016 1.456l1.198 1.863H9.065 L7.959 4.157h-0.96v1.751H6.061V1.09z M6.999 1.846v1.576h1.086c0.574 0 0.868-0.351 0.868-0.826c0-0.463-0.309-0.75-0.868-0.75 H6.999z"/>
	<path fill="#918F8A" d="M13.885 1.006c1.464 0 2.5 1.1 2.5 2.493s-0.987 2.493-2.451 2.493c-1.492 0-2.458-1.058-2.458-2.493 S12.393 1 13.9 1.006z M13.885 5.187c0.89 0 1.484-0.714 1.484-1.688s-0.595-1.688-1.484-1.688 c-0.896 0-1.492 0.708-1.492 1.688S12.988 5.2 13.9 5.187z"/>
	<path fill="#918F8A" d="M18.065 1.09h1.716c1.688 0 2.6 1 2.6 2.409s-0.869 2.409-2.557 2.409h-1.716V1.09z M19.004 1.9 v3.264h0.714c1.205 0 1.653-0.757 1.653-1.632c0-0.876-0.448-1.632-1.653-1.632H19.004z"/>
	<path fill="#918F8A" d="M23.987 1.09h0.945v2.871c0 0.8 0.4 1.2 1.1 1.226c0.756 0 1.127-0.441 1.127-1.226V1.09h0.946 v2.886c0 1.498-0.854 2.017-2.073 2.017s-2.08-0.519-2.08-2.017V1.09z"/>
	<path fill="#918F8A" d="M32.207 1.006c1.19 0 2 0.7 2.1 1.674h-0.938c-0.154-0.561-0.561-0.869-1.197-0.869 c-0.883 0-1.437 0.693-1.437 1.688c0 1 0.6 1.7 1.4 1.688c0.679 0 1.043-0.308 1.197-0.868h0.938 c-0.183 1.022-0.96 1.674-2.15 1.674c-1.484 0-2.388-1.058-2.388-2.493C29.805 2.1 30.7 1 32.2 1.006z"/>
	<path fill="#918F8A" d="M36.054 1.09h3.495v0.777h-2.557v1.212h2.059v0.742h-2.059v1.31h2.619v0.777h-3.558V1.09z"/>
	<path fill="#918F8A" d="M41.364 1.09h1.716c1.688 0 2.6 1 2.6 2.409s-0.869 2.409-2.557 2.409h-1.716V1.09z M42.303 1.9 v3.264h0.714c1.205 0 1.653-0.757 1.653-1.632c0-0.876-0.448-1.632-1.653-1.632H42.303z"/>
	<path fill="#918F8A" d="M49.449 1.09h0.938v4.818h-0.938V1.09z"/>
	<path fill="#918F8A" d="M52.372 1.09h0.848l2.416 3.222h0.028L55.636 1.09h0.938v4.818h-0.833l-2.431-3.222h-0.028l0.028 3.2 h-0.938V1.09z"/>
	<path fill="#918F8A" d="M0.567 9.09h2.073c1.148 0 1.8 0.7 1.8 1.59c0 0.952-0.638 1.652-1.786 1.652H1.506v1.576H0.567V9.09 z M1.506 9.846v1.73h1.051c0.609 0 0.917-0.371 0.917-0.883c0-0.504-0.308-0.848-0.917-0.848H1.506z"/>
	<path fill="#918F8A" d="M7.083 9.09H8.19l1.793 4.818H8.988L8.617 12.83H6.621l-0.378 1.078H5.29L7.083 9.09z M7.615 10 L6.88 12.073h1.479L7.644 9.979H7.615z"/>
	<path fill="#918F8A" d="M11.449 9.09h2.066c1.155 0 1.8 0.6 1.8 1.499c0 0.686-0.35 1.226-1.016 1.456l1.198 1.863h-1.022 l-1.106-1.751h-0.96v1.751h-0.938V9.09z M12.388 9.846v1.576h1.086c0.574 0 0.868-0.351 0.868-0.826c0-0.463-0.309-0.75-0.868-0.75 H12.388z"/>
	<path fill="#918F8A" d="M17.123 9.09h0.848l2.416 3.222h0.028L20.387 9.09h0.938v4.818h-0.833l-2.431-3.222h-0.028l0.028 3.2 h-0.938V9.09z"/>
	<path fill="#918F8A" d="M23.32 9.09h3.495v0.777h-2.557v1.212h2.059v0.742h-2.059v1.31h2.619v0.777H23.32V9.09z"/>
	<path fill="#918F8A" d="M28.631 9.09h2.066c1.155 0 1.8 0.6 1.8 1.499c0 0.686-0.35 1.226-1.016 1.456l1.198 1.863h-1.022 l-1.106-1.751h-0.96v1.751h-0.938V9.09z M29.569 9.846v1.576h1.086c0.574 0 0.868-0.351 0.868-0.826c0-0.463-0.309-0.75-0.868-0.75 H29.569z"/>
	<path fill="#918F8A" d="M34.961 12.535c0 0.5 0.4 0.8 1 0.757c0.672 0 1.064-0.267 1.064-0.729 c0-1.106-2.942-0.189-2.942-2.108c0-0.826 0.736-1.449 1.892-1.449c1.128 0 1.9 0.5 1.9 1.387H36.95 c0-0.441-0.399-0.687-0.938-0.687S35.06 9.9 35.1 10.364c0 1.1 3 0.2 3 2.108c0 0.903-0.729 1.52-2.023 1.5 c-1.269 0-1.954-0.561-1.954-1.457H34.961z"/>
	<path fill="#918F8A" d="M39.784 9.09h0.938v1.981h2.27V9.09h0.938v4.818h-0.938V11.87h-2.27v2.038h-0.938V9.09z"/>
	<path fill="#918F8A" d="M45.923 9.09h0.938v4.818h-0.938V9.09z"/>
	<path fill="#918F8A" d="M48.846 9.09h2.073c1.148 0 1.8 0.7 1.8 1.59c0 0.952-0.638 1.652-1.786 1.652h-1.135v1.576h-0.938 V9.09z M49.784 9.846v1.73h1.051c0.609 0 0.917-0.371 0.917-0.883c0-0.504-0.308-0.848-0.917-0.848H49.784z"/>
	<path fill="#918F8A" d="M56.014 9.09h1.008l0.862 3.81h0.027l0.988-3.81h0.973l1.009 3.81h0.028l0.833-3.81h0.98l-1.219 4.8 h-1.162l-0.96-3.628h-0.027l-0.946 3.628h-1.155L56.014 9.09z"/>
	<path fill="#918F8A" d="M64.216 9.09h0.938v4.818h-0.938V9.09z"/>
	<path fill="#918F8A" d="M66.613 9.09h4.203v0.784h-1.633v4.034h-0.938V9.874h-1.632V9.09z"/>
	<path fill="#918F8A" d="M72.282 9.09h0.938v1.981h2.27V9.09h0.938v4.818H75.49V11.87h-2.27v2.038h-0.938V9.09z"/>
</g>
<g>
	<path d="M0.562 95.772c0-25.276 0-50.552 0-75.828c25.276 0 50.6 0 75.8 0c0 25.3 0 50.5 0 75.8 C51.049 95.8 25.8 95.8 0.6 95.772z M66.021 50.477c-1.924 2.408-3.863 4.834-5.801 7.3 c-0.056-0.028-0.113-0.056-0.169-0.084c0-2.384 0-4.767 0-7.153c-0.888 0-1.709 0-2.59 0c0 4.3 0 8.5 0 12.7 c-2.339 0-4.613 0-6.951 0c0-4.277 0-8.489 0-12.732c-0.884 0-1.704 0-2.58 0c0 3.1 0 6.2 0 9.3 c-0.483-0.82-1.067-1.491-1.995-1.91c0.776-0.535 1.394-1.082 1.695-1.906c0.644-1.76 0.028-4.689-2.91-5.327 c-0.525-0.114-1.075-0.157-1.614-0.161c-2.369-0.017-4.739-0.007-7.109-0.007c-0.241 0-0.482 0-0.744 0 c-0.746 3.354-1.477 6.634-2.207 9.914c-0.05-0.005-0.1-0.01-0.15-0.015c-0.902-3.294-1.804-6.588-2.701-9.865 c-0.678 0-1.264 0-1.896 0c-0.909 3.315-1.812 6.612-2.715 9.908c-0.045-0.007-0.09-0.014-0.136-0.022 c-0.732-3.293-1.464-6.586-2.194-9.874c-1.56 0-3.053 0-4.648 0c0 3.4 0 6.7 0 10.011c-0.043 0.005-0.086 0.01-0.129 0 c-2.132-3.348-4.264-6.696-6.379-10.017c-0.825 0-1.599 0-2.382 0c0 5.1 0 10.1 0 15.214c0.858 0 1.7 0 2.6 0 c0-3.361 0-6.682 0-10.004c0.048-0.006 0.095-0.013 0.143-0.019c2.131 3.3 4.3 6.7 6.4 10.03c0.806 0 1.6 0 2.4 0 c0-3.92 0-7.807 0-11.694c0.056-0.007 0.112-0.014 0.167-0.021c0.979 3.9 2 7.8 2.9 11.71c0.756 0 1.4 0 2.2 0 c0.901-3.386 1.795-6.744 2.688-10.103c0.046 0 0.1 0 0.1 0.006c0.898 3.4 1.8 6.7 2.7 10.1 c0.775 0 1.5 0 2.2 0c0.994-3.964 1.979-7.891 2.963-11.817c0.056 0 0.1 0 0.2 0.03c0 3.9 0 7.8 0 11.7 c0.093 0 0.1 0.1 0.2 0.089c2.245 0 4.5 0.1 6.736-0.026c1.478-0.056 2.595-0.856 3.328-2.157 c0.1-0.178 0.204-0.354 0.307-0.531c0.041 0 0.1 0 0.1 0.037c0 0.9 0 1.8 0 2.637c4.065 0 8.1 0 12.1 0 c0-1.587 0-3.112 0-4.772c0.795-0.715 1.634-1.471 2.501-2.251c1.293 2.3 2.6 4.7 3.9 7.042c1.005 0 2 0 3.1 0 c-1.818-3.114-3.59-6.149-5.358-9.178c1.643-2.026 3.237-3.993 4.904-6.049C68.013 50.5 67 50.5 66 50.477z"/>
	<path d="M39.877 63.241c0-1.383 0-2.706 0-4.079c0.204-0.023 0.393-0.062 0.583-0.063c0.962-0.005 1.925-0.032 2.9 0 c1.276 0.1 2.1 0.8 2.1 1.927c0.065 1.209-0.593 2.094-1.807 2.187C42.429 63.3 41.2 63.2 39.9 63.241z"/>
	<path d="M39.887 56.688c0-1.315 0-2.562 0-3.853c1.265 0 2.494-0.071 3.7 0.022c1.028 0.1 1.7 0.9 1.6 1.9 c-0.015 0.998-0.621 1.79-1.637 1.867C42.388 56.8 41.2 56.7 39.9 56.688z"/>
</g>
</svg>
