<svg xmlns="http://www.w3.org/2000/svg" xmlns:xlink="http://www.w3.org/1999/xlink" version="1.1" id="Layer_1" x="0px" y="0px" width="400px" height="400px" viewBox="0 0 400 400" enable-background="new 0 0 400 400" xml:space="preserve">
<rect x="34" y="135" fill="#FFFFFF" width="347" height="133"/>
<g>
	<path fill="#221F1F" d="M0 400C0 266.7 0 133.3 0 0c133.333 0 266.7 0 400 0c0 133.3 0 266.5 0 400 C266.321 400 133.2 400 0 400z M345.302 161.068c-10.152 12.704-20.377 25.5-30.603 38.297c-0.297-0.147-0.593-0.294-0.89-0.441 c0-12.574 0-25.149 0-37.735c-4.686 0-9.013 0-13.664 0c0 22.5 0 44.8 0 67.121c-12.337 0-24.335 0-36.665 0 c0-22.564 0-44.78 0-67.162c-4.663 0-8.988 0-13.611 0c0 16.5 0 32.6 0 48.832c-2.55-4.327-5.629-7.866-10.526-10.077 c4.096-2.823 7.354-5.707 8.943-10.053c3.396-9.284 0.146-24.733-15.352-28.099c-2.772-0.602-5.672-0.829-8.516-0.849 c-12.499-0.089-24.999-0.038-37.498-0.038c-1.272 0-2.544 0-3.922 0c-3.938 17.691-7.789 34.994-11.641 52.3 c-0.263-0.026-0.526-0.052-0.789-0.078c-4.757-17.377-9.515-34.753-14.247-52.039c-3.577 0-6.667 0-10.003 0 c-4.793 17.489-9.558 34.878-14.323 52.267c-0.239-0.038-0.477-0.076-0.716-0.115c-3.86-17.372-7.721-34.744-11.575-52.085 c-8.228 0-16.106 0-24.516 0c0 17.8 0 35.3 0 52.808c-0.227 0.026-0.453 0.053-0.68 0.1 c-11.248-17.662-22.495-35.323-33.651-52.842c-4.35 0-8.437 0-12.564 0c0 26.9 0 53.5 0 80.257c4.524 0 8.8 0 13.6 0 c0-17.727 0-35.249 0-52.772c0.251-0.034 0.501-0.067 0.752-0.101c11.243 17.7 22.5 35.3 33.7 52.9 c4.253 0 8.3 0 12.7 0c0-20.677 0-41.183 0-61.689c0.295-0.037 0.589-0.074 0.884-0.11 c5.165 20.6 10.3 41.2 15.5 61.771c3.988 0 7.6 0 11.4 0c4.752-17.86 9.466-35.577 14.181-53.294 c0.241 0 0.5 0 0.7 0.034c4.734 17.8 9.5 35.6 14.2 53.227c4.09 0 7.7 0 11.4 0 c5.244-20.913 10.438-41.625 15.633-62.338c0.295 0.1 0.6 0.1 0.9 0.159c0 20.7 0 41.3 0 61.8 c0.493 0.3 0.7 0.5 0.9 0.472c11.845 0 23.7 0.3 35.531-0.138c7.797-0.294 13.691-4.515 17.555-11.381 c0.529-0.94 1.078-1.869 1.618-2.803c0.214 0.1 0.4 0.1 0.6 0.196c0 4.6 0 9.2 0 13.909c21.443 0 42.6 0 63.9 0 c0-8.372 0-16.416 0-25.173c4.193-3.774 8.62-7.758 13.193-11.875c6.82 12.2 13.8 24.7 20.8 37.1 c5.299 0 10.4 0 16.1 0c-9.59-16.427-18.937-32.437-28.265-48.414c8.664-10.687 17.076-21.062 25.869-31.909 C355.809 161.1 350.7 161.1 345.3 161.068z"/>
	<path fill="#221F1F" d="M207.39 228.397c0-7.294 0-14.274 0-21.517c1.078-0.122 2.075-0.327 3.074-0.333 c5.073-0.028 10.153-0.167 15.2 0.042c6.734 0.3 10.8 4.1 11.2 10.166c0.345 6.38-3.13 11.047-9.534 11.5 C220.853 228.8 214.3 228.4 207.4 228.397z"/>
	<path fill="#221F1F" d="M207.441 193.829c0-6.937 0-13.516 0-20.325c6.671 0 13.154-0.375 19.6 0.1 c5.422 0.4 8.8 4.9 8.7 10.248c-0.078 5.263-3.277 9.441-8.636 9.846C220.635 194.2 214.1 193.8 207.4 193.829z"/>
</g>
</svg>
