<svg xmlns="http://www.w3.org/2000/svg" xmlns:xlink="http://www.w3.org/1999/xlink" version="1.1" id="Layer_1" x="0px" y="0px" width="150px" height="45px" viewBox="0 0 150 45" enable-background="new 0 0 150 45" xml:space="preserve">
<g>
	<g>
		<path fill="#231F20" d="M14.361 39.57v-6.579h1.276v6.497c0 2.4 1.3 3.8 3.5 3.815c2.085 0 3.411-1.26 3.411-3.733v-6.579 h1.276v6.481c0 3.298-1.891 5.012-4.72 5.012C16.268 44.5 14.4 42.8 14.4 39.57z"/>
		<path fill="#231F20" d="M33.26 32.992h4.234c2.555 0 4.2 1.4 4.2 3.588v0.033c0 2.441-2.037 3.7-4.446 3.7h-2.746v3.994 H33.26V32.992z M37.334 39.15c1.874 0 3.102-1.003 3.102-2.489v-0.033c0-1.616-1.212-2.456-3.038-2.456h-2.861v4.978H37.334z"/>
		<path fill="#231F20" d="M50.512 32.992h4.866c1.389 0 2.5 0.4 3.2 1.131c0.549 0.5 0.9 1.3 0.9 2.23v0.033 c0 1.875-1.292 2.973-3.07 3.297l3.475 4.624h-1.568l-3.28-4.397H54.99H51.79v4.397h-1.277V32.992z M55.265 38.8 c1.697 0 2.909-0.873 2.909-2.328v-0.031c0-1.39-1.067-2.231-2.893-2.231H51.79v4.59H55.265z"/>
		<path fill="#231F20" d="M68.766 32.992h1.277v11.315h-1.277V32.992z"/>
		<path fill="#231F20" d="M79.073 42.657l0.79-0.938c1.181 1.1 2.3 1.6 3.9 1.6c1.52 0 2.521-0.806 2.521-1.922v-0.033 c0-1.052-0.567-1.649-2.941-2.15c-2.603-0.565-3.799-1.405-3.799-3.264v-0.033c0-1.777 1.566-3.087 3.717-3.087 c1.649 0 2.8 0.5 4 1.39l-0.743 0.986c-1.05-0.857-2.102-1.228-3.265-1.228c-1.472 0-2.409 0.808-2.409 1.825v0.035 c0 1.1 0.6 1.7 3.1 2.197c2.523 0.5 3.7 1.5 3.7 3.2v0.033c0 1.939-1.616 3.201-3.863 3.2 C81.901 44.5 80.4 43.9 79.1 42.657z"/>
		<path fill="#231F20" d="M96.728 32.992h1.277v11.315h-1.277V32.992z"/>
		<path fill="#231F20" d="M107.778 32.992h1.196l7.129 9.068v-9.068h1.244v11.315h-1.02l-7.304-9.279v9.279h-1.244V32.992z"/>
		<path fill="#231F20" d="M126.499 38.681v-0.033c0-3.103 2.279-5.852 5.673-5.852c1.907 0 3.1 0.6 4.2 1.504l-0.824 1 c-0.872-0.761-1.841-1.293-3.44-1.293c-2.507 0-4.299 2.117-4.299 4.638v0.033c0 2.7 1.7 4.7 4.5 4.7 c1.293 0 2.488-0.502 3.263-1.131v-2.811h-3.44v-1.148h4.67v4.509c-1.051 0.938-2.635 1.73-4.542 1.7 C128.697 44.5 126.5 41.9 126.5 38.681z"/>
	</g>
	<g>
		<path fill="#231F20" d="M17.182 0.413h1.196l5.156 11.395h-1.373l-1.327-2.99h-6.156l-1.34 2.99h-1.311L17.182 0.413z M20.333 7.671L17.765 1.9l-2.587 5.771H20.333z"/>
		<path fill="#231F20" d="M32.219 0.494h4.864c1.391 0 2.5 0.4 3.2 1.131c0.549 0.6 0.9 1.3 0.9 2.231v0.032 c0 1.875-1.292 2.975-3.072 3.297l3.475 4.623h-1.568l-3.279-4.396h-0.035h-3.199v4.396h-1.276V0.494z M36.969 6.3 c1.698 0 2.912-0.874 2.912-2.327V3.905c0-1.39-1.067-2.23-2.893-2.23h-3.492v4.59H36.969z"/>
		<path fill="#231F20" d="M53.236 1.675h-3.799V0.494h8.891v1.181h-3.799v10.133h-1.293V1.675z"/>
		<path fill="#231F20" d="M67.288 0.494h1.277v11.314h-1.277V0.494z"/>
		<path fill="#231F20" d="M78.336 0.494h8.13v1.181h-6.854v4.04h6.127v1.163h-6.127v4.93h-1.276V0.494z"/>
		<path fill="#231F20" d="M98.287 0.413h1.195l5.157 11.395h-1.373l-1.327-2.99h-6.158l-1.34 2.99h-1.309L98.287 0.413z M101.44 7.671L98.871 1.9l-2.588 5.771H101.44z"/>
		<path fill="#231F20" d="M112.162 6.184V6.15c0-3.199 2.391-5.85 5.721-5.85c2.053 0 3.3 0.7 4.4 1.794l-0.874 0.9 c-0.954-0.905-2.019-1.55-3.556-1.55c-2.503 0-4.378 2.035-4.378 4.638V6.15c0 2.6 1.9 4.7 4.4 4.7 c1.553 0 2.571-0.597 3.653-1.632l0.841 0.823c-1.18 1.196-2.472 1.988-4.526 1.988C114.569 12 112.2 9.4 112.2 6.184z"/>
		<path fill="#231F20" d="M134.035 1.675h-3.799V0.494h8.889v1.181h-3.797v10.133h-1.293V1.675z"/>
	</g>
	<rect y="21.9" fill="#231F20" width="150" height="1"/>
</g>
</svg>
