<svg xmlns="http://www.w3.org/2000/svg" xmlns:xlink="http://www.w3.org/1999/xlink" version="1.1" id="Layer_1" x="0px" y="0px" width="190px" height="70.25px" viewBox="0 0 190 70.25" enable-background="new 0 0 190 70.25" xml:space="preserve">
<g id="Ob602e_1_">
	<g>
		<path d="M188.39 11.698c-1.274 2.073-3.328 2.604-5.453 2.024c-0.993-0.272-2.116-1.377-2.483-2.364 c-0.776-2.088 0.742-3.408 2.264-4.56c-2.229-2.882-5.895-2.684-8.244 0.518c-2.174 2.963-2.314 6.488-2.963 10.1 c1.831 0.1 3.3 0.2 4.9 0.362c-0.248 0.816-0.445 1.462-0.653 2.143c-1.662 0.077-3.2 0.148-4.741 0.2 c-0.268 0.908-0.52 1.594-0.672 2.3c-2.544 11.813-5.125 23.619-7.59 35.45c-1.156 5.548-3.536 9.994-9.347 11.8 c0 0-2.708 0.67-5.724-0.73c-5.314-2.701-5.937-9.077-1.075-12.43c2.278-1.571 5.007-2.489 7.842-3.852 c0.189-0.667 0.506-1.645 0.736-2.643c0.23-0.997 0.373-2.014 0.633-3.462c-2.834 2.038-5.483 3.576-8.718 3.6 c-3.461 0.055-5.711-1.624-7.059-5.34c-0.911 1.096-1.497 1.928-2.208 2.633c-1.868 1.852-4.147 2.738-6.787 2.7 c-5.222-0.072-7.968-2.889-7.666-8.077c0.108-1.862 0.631-3.696 0.87-5.554c0.131-1.019 0.233-2.094 0.053-3.09 c-0.287-1.582-1.442-2.42-2.988-1.937c-2.096 0.654-4.028 1.523-4.472 4.203c-0.63 3.803-1.549 7.558-2.364 11.3 c-0.173 0.802-0.428 1.587-0.676 2.492c-2.882 0-5.672 0-8.519 0c-0.105-0.685-0.199-1.29-0.301-1.958 c-0.311 0.103-0.654 0.123-0.865 0.301c-1.834 1.547-3.938 2.312-6.334 2.287c-4.897-0.051-7.928-3.185-7.305-8.059 c0.527-4.126 1.595-8.182 2.37-12.279c0.231-1.223 0.529-2.518 0.342-3.709c-0.158-1.001-0.819-2.507-1.541-2.693 c-0.973-0.251-2.682 0.205-3.248 0.97c-1.204 1.625-2.22 3.561-2.699 5.519c-1.414 5.771-2.524 11.617-3.767 17.4 c-0.15 0.701-0.389 1.384-0.619 2.189c-2.876 0-5.665 0-8.65 0c0-0.93 0-1.784 0-2.442c-2.26 0.987-4.34 2.26-6.596 2.8 c-5.239 1.272-8.842-1.639-8.986-7.039c-0.039-1.443 0.193-2.918 0.48-4.342c1.281-6.338 2.621-12.664 3.958-18.991 c0.125-0.592 0.373-1.159 0.59-1.817c2.892 0 5.7 0 8.8 0c-0.41 2.182-0.754 4.195-1.171 6.2 c-1.067 5.104-2.2 10.195-3.235 15.305c-0.322 1.593-0.939 3.4 0.9 4.514c1.344 0.8 3.7 0.3 5-1.531 c1.17-1.647 2.126-3.603 2.596-5.562c1.482-6.176 2.692-12.417 4.048-18.827c2.952 0 5.8 0 8.8 0c0 0.6 0 1.3 0 2.1 c0.373-0.096 0.699-0.086 0.886-0.242c2.292-1.906 4.88-2.763 7.852-2.251c3.36 0.6 5.3 2.5 5.3 5.9 c0.002 2.787-0.47 5.593-0.941 8.355c-0.473 2.771-1.246 5.489-1.805 8.248c-0.3 1.48-0.302 3 1.3 3.8 c1.334 0.7 3.4 0.2 4.398-1.417c1.148-1.938 2.175-4.071 2.67-6.252c2.075-9.154 3.928-18.359 5.873-27.542 c0.171-0.808 0.42-1.6 0.687-2.602c2.861-0.417 5.73-0.836 9.197-1.342c-1.55 7.509-3.045 14.75-4.699 22.8 c3.643-2.87 6.821-5.069 9.624-7.674l2.3-1.835l6.202-0.003c-3.967 2.792-8.212 5.79-12.104 8.5 c0.633 0.2 1.513-0.025 1.747-0.04c5.768-0.37 7.8 4.7 7.2 8.716c-0.25 1.753-0.716 3.473-1.018 5.2 c-0.237 1.372-0.369 2.8 1.2 3.498c1.496 0.6 3.1 0.3 3.957-1.016c1.222-1.887 2.413-3.948 2.941-6.101 c1.515-6.17 2.69-12.423 4.042-18.848c2.939 0 5.8 0 9 0c-0.487 2.438-0.95 4.833-1.445 7.2 c-1.017 4.902-2.042 9.803-3.085 14.699c-0.315 1.479-0.635 3 0.9 3.915c1.535 0.9 3.1 0.3 4.363-0.71 c1.799-1.42 2.754-3.342 3.23-5.561c1.598-7.444 3.226-14.882 4.852-22.32c0.178-0.813 0.408-1.616 0.623-2.42 c1.596-5.968 5.391-9.723 11.363-11.284c2.41-0.675 4.76-0.695 6.934-0.107c2.918 0.9 6.2 2.3 7.5 5.7 C189.118 7 189.9 9.3 188.4 11.698z M154.489 54.859c-3.413 0.886-5.57 2.02-7.095 4.1 c-1.293 1.763-1.069 3.7 0.4 4.664c1.498 1 3.4 0.5 4.351-1.49C153.101 60 153.6 57.7 154.5 54.859z"/>
		<path d="M1.813 32.527C4.409 43.2 13.6 50.5 24.2 50.76c15.787 0.3 27.429-14.331 23.553-29.649 c-1.088-4.298-3.104-8.044-6.758-11.459c-0.613 2.941-1.129 5.347-1.615 7.76c-1.137 5.638-2.437 11.221-5.346 16.3 c-1.635 2.84-3.609 5.39-6.453 7.118c-6.861 4.169-15.954-0.525-16.557-8.487c-0.426-5.628 1.868-10.162 5.575-14.115 c4.51-4.81 10.112-8.014 16.056-10.689c0.97-0.437 1.929-0.9 3.186-1.488c-0.767-0.455-1.102-0.701-1.474-0.866 C21.034-0.75 5.7 6.7 1.9 20.968C1.901 21 0.4 26 1.8 32.527z"/>
		<path d="M73.22 8.842c-0.007 2.862-2.061 4.955-4.903 4.997c-2.766 0.041-5.002-2.113-5.075-4.887 c-0.076-2.897 2.217-5.204 5.118-5.149C71.169 3.9 73.2 6 73.2 8.842z"/>
		<path d="M151.055 3.803c2.873-0.066 5.3 2.3 5.2 5.082c-0.032 2.693-2.318 4.936-5.052 5 c-2.789 0.021-4.916-2.099-4.954-4.938C146.239 6 148.3 3.9 151.1 3.803z"/>
		<path d="M187.853 44.243c-0.755 3.914-3.045 5.872-6.679 5.895c-3.544 0.023-5.903-1.855-6.538-5.452 c-0.249-1.408-0.321-2.937-0.056-4.331c1.424-7.478 2.979-14.931 4.527-22.578c2.984 0 5.9 0 9.1 0 c-0.808 3.999-1.59 7.932-2.4 11.86c-0.632 3.065-1.304 6.121-1.945 9.184C182.957 43.1 183.4 43.7 187.9 44.243z"/>
	</g>
</g>
</svg>
