<svg xmlns="http://www.w3.org/2000/svg" xmlns:xlink="http://www.w3.org/1999/xlink" version="1.1" id="Layer_1" x="0px" y="0px" width="1512px" height="522px" viewBox="0 38.5 1512 522" enable-background="new 0 38.5 1512 522" xml:space="preserve">
<g>
	<rect x="6" y="65.3" width="50.2" height="472.3"/>
	<path d="M347.652 219.157c0-92.926-75.6-168.525-168.527-168.525c-37.771 0-72.667 12.502-100.798 33.571v73.685 c20.733-33.982 58.161-56.718 100.798-56.718c65.058 0 118 52.9 118 117.987c0 13.659-2.359 26.77-6.646 39 c-29.715-26.207-68.7-42.133-111.341-42.133c-37.771 0-72.667 12.501-100.798 33.571v30.854v42.828v30.855 c28.131 21.1 63 33.6 100.8 33.571c42.641 0 81.626-15.928 111.341-42.136c4.288 12.2 6.6 25.3 6.6 39 c0 65.059-52.93 117.986-117.988 117.986c-42.638 0-80.065-22.73-100.798-56.715v73.685 c28.131 21.1 63 33.6 100.8 33.569c92.928 0 168.527-75.6 168.527-168.525c0-30.031-7.905-58.247-21.727-82.69 C339.747 277.4 347.7 249.2 347.7 219.157z M179.125 337.149c-32.882 0-62.654-13.529-84.072-35.304 c21.418-21.772 51.19-35.302 84.072-35.302c32.879 0 62.6 13.5 84.1 35.302C241.77 323.6 212 337.1 179.1 337.149z "/>
</g>
<polygon points="1455.8,65.4 1455.8,433.7 1254.8,65.5 1254.8,65.4 1204.5,65.4 1204.5,537.7 1254.8,537.7 1254.8,169.9 1455.6,537.8 1455.8,537.7 1455.8,537.7 1506,537.7 1506,65.4"/>
<g>
	<path d="M660.162 553.061c-138.74 0-251.215-112.472-251.215-251.215S521.422 50.6 660.2 50.6 c138.743 0 251.2 112.5 251.2 251.214C911.377 440.6 798.9 553.1 660.2 553.061z M859.913 301.8 c0-110.995-89.433-200.973-199.751-200.973S460.41 190.9 460.4 301.846c0 111 89.4 201 199.8 201 S859.913 412.8 859.9 301.846z"/>
	<path d="M890.104 553.061c-138.74 0-251.215-112.472-251.215-251.215S751.364 50.6 890.1 50.6 s251.215 112.5 251.2 251.214C1141.318 440.6 1028.8 553.1 890.1 553.061z M1089.854 301.8 c0-110.995-89.433-200.973-199.751-200.973s-199.751 89.978-199.751 200.973c0 111 89.4 201 199.8 201 S1089.854 412.8 1089.9 301.846z"/>
</g>
</svg>
