<svg xmlns="http://www.w3.org/2000/svg" xmlns:xlink="http://www.w3.org/1999/xlink" version="1.1" id="Layer_1" x="0px" y="0px" width="489px" height="145px" viewBox="0 0 489 145" enable-background="new 0 0 489 145" xml:space="preserve">
<g>
	<polygon fill="#EE3C25" points="2.1,32 30.9,12.3 41.4,12.3 41.4,85.1 60.7,85.1 60.7,98.1 4.9,98.1 4.9,85.1 25.4,85.1 25.4,32 8.7,43.4"/>
	<path fill="#EE3C25" d="M67.662 55.202c0-24.937 8.854-44.387 31.296-44.387c22.442 0 31.3 19.4 31.3 44.4 S121.401 99.6 99 99.59C76.516 99.6 67.7 80.1 67.7 55.2 M113.797 55.202c0-20.697-4.739-31.171-14.839-31.171 c-10.224 0-14.837 10.474-14.837 31.171s4.738 31.2 14.8 31.171C108.933 86.4 113.8 75.9 113.8 55.2"/>
	<path fill="#EE3C25" d="M141.255 55.202c0-24.937 8.854-44.387 31.295-44.387c22.443 0 31.3 19.4 31.3 44.4 s-8.853 44.388-31.296 44.388C150.109 99.6 141.3 80.1 141.3 55.2 M187.389 55.202c0-20.697-4.739-31.171-14.838-31.171 c-10.224 0-14.837 10.474-14.837 31.171s4.737 31.2 14.8 31.171C182.526 86.4 187.4 75.9 187.4 55.2"/>
	<path fill="#EE3C25" d="M263.69 75.152c0.997 6.1 5.2 12 14.2 11.969c7.73 0 14.214-5.486 14.214-15.71 c0-9.85-5.985-15.711-14.214-15.711c-6.234 0-9.85 3.492-12.842 7.731l-14.589-1.622l2.744-49.498h50.248v13.216h-36.159 l-1.372 22.319h0.624c2.992-2.743 7.98-4.614 14.338-4.614c15.71 0 27.3 10 27.3 27.4 c0 19.701-14.089 28.927-30.174 28.927c-18.577 0-28.677-9.725-30.047-24.438H263.69z"/>
	<path fill="#EE3C25" d="M320.292 55.202c0-24.937 8.854-44.387 31.296-44.387c22.443 0 31.3 19.4 31.3 44.4 s-8.853 44.388-31.296 44.388C329.146 99.6 320.3 80.1 320.3 55.2 M366.427 55.202c0-20.697-4.738-31.171-14.838-31.171 c-10.224 0-14.837 10.474-14.837 31.171s4.738 31.2 14.8 31.171C361.564 86.4 366.4 75.9 366.4 55.2"/>
	<polygon fill="#EE3C25" points="428.5,32 457.3,12.3 467.8,12.3 467.8,85.1 487.1,85.1 487.1,98.1 431.3,98.1 431.3,85.1 451.8,85.1 451.8,32 435.1,43.4"/>
	<rect x="225.9" y="0.1" fill="#EE3C25" width="3" height="110"/>
	<rect x="404.3" y="0.1" fill="#EE3C25" width="3" height="110"/>
</g>
<g>
	<path fill="#908E89" d="M4.38 124.842l5.74-3.967h1.357v16.413h4.566v1.539H4.85v-1.539h4.853v-14.221l-4.54 3.131L4.38 124.842z"/>
	<path fill="#908E89" d="M17.5 129.852c0-5.219 1.8-9.263 6.184-9.263c4.384 0 6.2 4 6.2 9.263s-1.8 9.263-6.184 9.3 C19.3 139.1 17.5 135.1 17.5 129.852z M28.015 129.852c0-4.697-1.383-7.646-4.332-7.646c-3 0-4.331 2.948-4.331 7.6 c0 4.7 1.4 7.6 4.3 7.645C26.632 137.5 28 134.5 28 129.852z"/>
	<path fill="#908E89" d="M32.628 129.852c0-5.219 1.8-9.263 6.184-9.263c4.384 0 6.2 4 6.2 9.263s-1.8 9.263-6.184 9.3 C34.429 139.1 32.6 135.1 32.6 129.852z M43.144 129.852c0-4.697-1.383-7.646-4.332-7.646c-3 0-4.331 2.948-4.331 7.6 c0 4.7 1.4 7.6 4.3 7.645C41.761 137.5 43.1 134.5 43.1 129.852z"/>
	<path fill="#908E89" d="M55.717 144.567h-1.774v-18.474h1.696v2.271h0.079c0.809-1.748 2.505-2.558 4.488-2.558 c3.157 0 5.6 2.5 5.6 6.55s-2.557 6.758-5.714 6.758c-1.983 0-3.522-0.809-4.331-2.558h-0.079 c0.052 1.3 0.1 4.1 0.1 4.749V144.567z M59.813 127.347c-2.244 0-4.018 1.8-4.096 4.879v0.235 c0 3.2 1.8 5.1 4.1 5.113c2.296 0 4.097-2.009 4.097-5.218C63.91 129.1 62.1 127.3 59.8 127.347z"/>
	<path fill="#908E89" d="M73.942 125.807c3.679 0 6.1 2.6 6.1 6.654c0 4.018-2.583 6.653-6.054 6.7 c-3.679 0-6.053-2.636-6.053-6.653C67.889 128.4 70.5 125.8 73.9 125.807z M73.942 137.6 c2.427 0 4.201-2.061 4.201-5.113c0-3.132-1.722-5.114-4.201-5.114c-2.426 0-4.201 2.062-4.201 5.1 S71.463 137.6 73.9 137.574z"/>
	<path fill="#908E89" d="M82.941 126.094h1.696v2.088h0.079c0.6-1.436 1.8-2.375 3.418-2.375c0.548 0 1.2 0.1 1.8 0.5 l-0.574 1.592c-0.574-0.313-1.122-0.418-1.592-0.418c-2.035 0-3.053 2.166-3.053 4.593v6.731h-1.774V126.094z"/>
	<path fill="#908E89" d="M93.444 127.529h-2.505v-1.436h2.505v-3.861h1.774v3.861h3.47v1.436h-3.47v7.566 c0 1.6 0.6 2.2 2 2.192h1.435v1.539h-1.67c-2.375 0-3.575-1.148-3.575-3.653V127.529z"/>
	<path fill="#908E89" d="M101.033 126.094h1.696v2.088h0.079c0.6-1.436 1.8-2.375 3.418-2.375c0.548 0 1.2 0.1 1.8 0.5 l-0.574 1.592c-0.574-0.313-1.122-0.418-1.592-0.418c-2.035 0-3.053 2.166-3.053 4.593v6.731h-1.774V126.094z"/>
	<path fill="#908E89" d="M113.003 131.834l2.74-0.47c1.304-0.208 1.722-0.417 1.722-1.069c-0.052-1.957-1.07-3.026-3.027-3.026 c-1.983 0-3.157 1.043-3.288 2.792h-1.696c0.13-2.506 1.957-4.254 4.984-4.254c3.105 0 4.8 1.7 4.8 4.645v8.376h-1.696 v-2.035h-0.078c-0.731 1.487-2.296 2.322-4.332 2.322c-2.662 0-4.175-1.409-4.175-3.496 C108.958 133.5 110.2 132.3 113 131.834z M117.465 131.991c-0.287 0.339-0.809 0.548-1.461 0.652l-2.688 0.4 c-1.8 0.287-2.583 1.096-2.583 2.374c0 1.3 0.9 2.2 2.7 2.192c2.191 0 4.044-1.331 4.044-4.228V131.991z"/>
	<path fill="#908E89" d="M122.741 119.728h1.931v2.505h-1.931V119.728z M122.819 126.094h1.774v12.733h-1.774V126.094z"/>
	<path fill="#908E89" d="M129.085 127.529h-2.505v-1.436h2.505v-3.861h1.774v3.861h3.47v1.436h-3.47v7.566 c0 1.6 0.6 2.2 2 2.192h1.435v1.539h-1.67c-2.375 0-3.575-1.148-3.575-3.653V127.529z"/>
	<path fill="#908E89" d="M137.645 135.227c0 1.7 1.7 2.5 3.4 2.505c2.166 0 3.444-0.861 3.444-2.4 c0-1.2-0.757-1.723-2.271-1.983l-2.4-0.417c-1.748-0.287-3.575-0.992-3.575-3.314c0-2.4 2.14-3.81 4.879-3.81 c2.583 0 4.9 1.1 4.9 3.758h-1.696c0-1.592-1.383-2.375-3.157-2.375s-3.157 0.783-3.157 2.271c0 1.2 0.8 1.7 2.4 2 l2.401 0.417c2.009 0.4 3.5 1.1 3.5 3.34c0 2.609-2.191 3.94-5.218 3.94c-2.896 0-5.088-1.278-5.088-3.888H137.645z"/>
	<path fill="#908E89" d="M155.619 118.997h1.618v26.093h-1.618V118.997z"/>
	<path fill="#908E89" d="M168.585 134.131c0.235 1.7 1.5 3.4 4.3 3.443c2.27 0 4.279-1.539 4.279-4.331 c0-2.661-1.774-4.357-4.253-4.357c-1.565 0-2.818 0.73-3.835 2.113l-1.644-0.078l0.522-10.046h9.941v1.618h-8.324l-0.365 6.5 h0.078c0.861-1.069 2.166-1.617 3.862-1.617c3.262 0 5.8 2.2 5.8 5.74c0 3.966-2.896 6.027-6.053 6 c-3.627 0-5.714-2.113-6.027-4.983H168.585z"/>
	<path fill="#908E89" d="M181.193 129.852c0-5.219 1.8-9.263 6.184-9.263c4.384 0 6.2 4 6.2 9.263s-1.8 9.263-6.184 9.3 C182.994 139.1 181.2 135.1 181.2 129.852z M191.708 129.852c0-4.697-1.383-7.646-4.332-7.646c-3 0-4.331 2.948-4.331 7.6 c0 4.7 1.4 7.6 4.3 7.645C190.326 137.5 191.7 134.5 191.7 129.852z"/>
	<path fill="#908E89" d="M204.281 144.567h-1.774v-18.474h1.696v2.271h0.079c0.809-1.748 2.505-2.558 4.488-2.558 c3.157 0 5.6 2.5 5.6 6.55s-2.557 6.758-5.714 6.758c-1.983 0-3.522-0.809-4.331-2.558h-0.079 c0.052 1.3 0.1 4.1 0.1 4.749V144.567z M208.377 127.347c-2.244 0-4.018 1.8-4.096 4.879v0.235 c0 3.2 1.8 5.1 4.1 5.113c2.296 0 4.097-2.009 4.097-5.218C212.474 129.1 210.6 127.3 208.4 127.347z"/>
	<path fill="#908E89" d="M217.272 119.728h1.774v3.81c0 0.652-0.026 3.392-0.079 4.645h0.079c0.756-1.592 2.322-2.375 4.175-2.375 c2.505 0 4.6 1.4 4.6 5.219v7.802h-1.774v-7.566c0-2.87-1.304-3.914-3.209-3.914c-2.087 0-3.81 1.695-3.81 4.801v6.68h-1.774 V119.728z"/>
	<path fill="#908E89" d="M236.662 125.807c3.679 0 6.1 2.6 6.1 6.654c0 4.018-2.583 6.653-6.054 6.7 c-3.679 0-6.053-2.636-6.053-6.653C230.609 128.4 233.2 125.8 236.7 125.807z M236.662 137.6 c2.427 0 4.201-2.061 4.201-5.113c0-3.132-1.722-5.114-4.201-5.114c-2.426 0-4.201 2.062-4.201 5.1 S234.184 137.6 236.7 137.574z"/>
	<path fill="#908E89" d="M246.056 127.529h-2.505v-1.436h2.505v-3.861h1.774v3.861h3.471v1.436h-3.471v7.566 c0 1.6 0.6 2.2 2 2.192h1.436v1.539h-1.67c-2.375 0-3.575-1.148-3.575-3.653V127.529z"/>
	<path fill="#908E89" d="M258.506 125.807c3.679 0 6.1 2.6 6.1 6.654c0 4.018-2.583 6.653-6.053 6.7 c-3.68 0-6.054-2.636-6.054-6.653C252.452 128.4 255 125.8 258.5 125.807z M258.506 137.574c2.426 0 4.2-2.061 4.2-5.113 c0-3.132-1.722-5.114-4.2-5.114c-2.427 0-4.201 2.062-4.201 5.114S256.026 137.6 258.5 137.574z"/>
	<path fill="#908E89" d="M268.694 140.393c0 1.8 1.6 2.9 3.8 2.923c2.427 0 4.332-1.253 4.332-5.036v-1.723h-0.078 c-0.835 1.749-2.531 2.558-4.488 2.558c-3.157 0-5.558-2.453-5.558-6.55c0-4.096 2.557-6.758 5.714-6.758 c1.957 0 3.5 0.8 4.3 2.558h0.078v-2.271h1.696v12.186c0 4.774-2.714 6.497-6.028 6.497c-3.131 0-5.479-1.54-5.479-4.384 H268.694z M272.635 137.574c2.244 0 3.992-1.773 4.097-4.879v-0.47c-0.104-3.079-1.853-4.879-4.097-4.879 c-2.296 0-4.097 2.009-4.097 5.218C268.538 135.8 270.3 137.6 272.6 137.574z"/>
	<path fill="#908E89" d="M282.221 126.094h1.696v2.088h0.078c0.601-1.436 1.801-2.375 3.419-2.375c0.548 0 1.2 0.1 1.8 0.5 l-0.574 1.592c-0.573-0.313-1.122-0.418-1.592-0.418c-2.035 0-3.053 2.166-3.053 4.593v6.731h-1.774V126.094z"/>
	<path fill="#908E89" d="M294.19 131.834l2.74-0.47c1.305-0.208 1.722-0.417 1.722-1.069c-0.052-1.957-1.069-3.026-3.026-3.026 c-1.983 0-3.157 1.043-3.288 2.792h-1.695c0.13-2.506 1.957-4.254 4.983-4.254c3.104 0 4.8 1.7 4.8 4.645v8.376h-1.696 v-2.035h-0.078c-0.73 1.487-2.296 2.322-4.331 2.322c-2.661 0-4.175-1.409-4.175-3.496 C290.146 133.5 291.4 132.3 294.2 131.834z M298.652 131.991c-0.287 0.339-0.809 0.548-1.461 0.652l-2.688 0.4 c-1.801 0.287-2.583 1.096-2.583 2.374c0 1.3 0.9 2.2 2.7 2.192c2.191 0 4.044-1.331 4.044-4.228V131.991z"/>
	<path fill="#908E89" d="M305.805 144.567h-1.773v-18.474h1.695v2.271h0.078c0.81-1.748 2.505-2.558 4.488-2.558 c3.157 0 5.6 2.5 5.6 6.55s-2.557 6.758-5.714 6.758c-1.983 0-3.522-0.809-4.332-2.558h-0.078 c0.053 1.3 0.1 4.1 0.1 4.749V144.567z M309.901 127.347c-2.244 0-4.018 1.8-4.097 4.879v0.235 c0 3.2 1.8 5.1 4.1 5.113s4.097-2.009 4.097-5.218C313.998 129.1 312.2 127.3 309.9 127.347z"/>
	<path fill="#908E89" d="M318.797 119.728h1.773v3.81c0 0.652-0.025 3.392-0.078 4.645h0.078c0.757-1.592 2.322-2.375 4.175-2.375 c2.505 0 4.6 1.4 4.6 5.219v7.802h-1.774v-7.566c0-2.87-1.305-3.914-3.21-3.914c-2.087 0-3.81 1.695-3.81 4.801v6.68h-1.773 V119.728z"/>
	<path fill="#908E89" d="M338.048 125.807c3.183 0 5.5 2.2 5.5 6.054v0.73h-9.498c0.052 3 1.6 5 4.1 5 c2.009 0 3.235-1.147 3.496-2.608h1.774c-0.34 2.322-2.427 4.148-5.271 4.148c-3.836 0-5.976-2.636-5.976-6.653 C332.177 128.5 334.7 125.8 338 125.807z M334.107 131.261h7.619c-0.183-2.662-1.592-3.914-3.679-3.914 C336.064 127.3 334.5 128.8 334.1 131.261z"/>
	<path fill="#908E89" d="M346.447 126.094h1.696v2.088h0.078c0.601-1.436 1.801-2.375 3.419-2.375c0.548 0 1.2 0.1 1.8 0.5 l-0.574 1.592c-0.573-0.313-1.122-0.418-1.592-0.418c-2.035 0-3.053 2.166-3.053 4.593v6.731h-1.774V126.094z"/>
	<path fill="#908E89" d="M356.142 135.227c0 1.7 1.7 2.5 3.4 2.505c2.166 0 3.444-0.861 3.444-2.4 c0-1.2-0.757-1.723-2.271-1.983l-2.4-0.417c-1.748-0.287-3.574-0.992-3.574-3.314c0-2.4 2.14-3.81 4.879-3.81 c2.583 0 4.9 1.1 4.9 3.758h-1.696c0-1.592-1.383-2.375-3.157-2.375s-3.157 0.783-3.157 2.271c0 1.2 0.8 1.7 2.4 2 l2.4 0.417c2.01 0.4 3.5 1.1 3.5 3.34c0 2.609-2.192 3.94-5.219 3.94c-2.896 0-5.088-1.278-5.088-3.888H356.142z"/>
	<path fill="#908E89" d="M374.116 118.997h1.617v26.093h-1.617V118.997z"/>
	<path fill="#908E89" d="M385.62 124.842l5.741-3.967h1.356v16.413h4.566v1.539H386.09v-1.539h4.854v-14.221l-4.54 3.1 L385.62 124.842z"/>
	<path fill="#908E89" d="M411.37 125.807c3.027 0 5 1.9 5.3 4.488h-1.774c-0.34-1.722-1.54-2.948-3.575-2.948 c-2.27 0-4.044 2.062-4.044 5.114s1.722 5.1 4 5.113c2.035 0 3.235-1.226 3.575-2.948h1.774 c-0.392 2.636-2.322 4.488-5.35 4.488c-3.601 0-5.896-2.636-5.896-6.653C405.474 128.4 408 125.8 411.4 125.807z"/>
	<path fill="#908E89" d="M422.89 131.834l2.74-0.47c1.305-0.208 1.722-0.417 1.722-1.069c-0.052-1.957-1.069-3.026-3.026-3.026 c-1.983 0-3.157 1.043-3.288 2.792h-1.695c0.13-2.506 1.957-4.254 4.983-4.254c3.104 0 4.8 1.7 4.8 4.645v8.376h-1.696 v-2.035h-0.078c-0.73 1.487-2.296 2.322-4.331 2.322c-2.661 0-4.175-1.409-4.175-3.496 C418.846 133.5 420.1 132.3 422.9 131.834z M427.352 131.991c-0.287 0.339-0.809 0.548-1.461 0.652l-2.688 0.4 c-1.801 0.287-2.583 1.096-2.583 2.374c0 1.3 0.9 2.2 2.7 2.192c2.191 0 4.044-1.331 4.044-4.228V131.991z"/>
	<path fill="#908E89" d="M432.73 126.094h1.695v2.088h0.078c0.757-1.592 2.322-2.375 4.045-2.375c1.774 0 3.3 0.8 4 2.7 c0.86-1.931 2.505-2.714 4.383-2.714c2.375 0 4.3 1.4 4.3 5.062v7.958h-1.774v-7.724c0-2.713-1.07-3.757-2.923-3.757 c-1.956 0-3.679 1.695-3.679 4.879v6.602h-1.774v-7.724c0-2.713-1.147-3.757-2.922-3.757c-1.957 0-3.68 1.695-3.68 4.853v6.628 h-1.773V126.094z"/>
	<path fill="#908E89" d="M459.967 125.807c3.183 0 5.5 2.2 5.5 6.054v0.73h-9.498c0.052 3 1.6 5 4.1 5 c2.01 0 3.236-1.147 3.497-2.608h1.774c-0.34 2.322-2.427 4.148-5.271 4.148c-3.835 0-5.975-2.636-5.975-6.653 C454.096 128.5 456.7 125.8 460 125.807z M456.026 131.261h7.619c-0.183-2.662-1.592-3.914-3.679-3.914 C457.983 127.3 456.4 128.8 456 131.261z"/>
	<path fill="#908E89" d="M468.367 126.094h1.695v2.088h0.078c0.601-1.436 1.801-2.375 3.419-2.375c0.548 0 1.2 0.1 1.8 0.5 l-0.574 1.592c-0.574-0.313-1.122-0.418-1.592-0.418c-2.035 0-3.053 2.166-3.053 4.593v6.731h-1.773V126.094z"/>
	<path fill="#908E89" d="M480.336 131.834l2.74-0.47c1.305-0.208 1.722-0.417 1.722-1.069c-0.052-1.957-1.069-3.026-3.026-3.026 c-1.983 0-3.157 1.043-3.288 2.792h-1.695c0.13-2.506 1.956-4.254 4.983-4.254c3.104 0 4.8 1.7 4.8 4.645v8.376h-1.696 v-2.035h-0.078c-0.73 1.487-2.296 2.322-4.331 2.322c-2.661 0-4.175-1.409-4.175-3.496 C476.292 133.5 477.5 132.3 480.3 131.834z M484.798 131.991c-0.287 0.339-0.809 0.548-1.461 0.652l-2.688 0.4 c-1.801 0.287-2.583 1.096-2.583 2.374c0 1.3 0.9 2.2 2.7 2.192c2.191 0 4.044-1.331 4.044-4.228V131.991z"/>
</g>
</svg>
