<svg xmlns="http://www.w3.org/2000/svg" xmlns:xlink="http://www.w3.org/1999/xlink" version="1.1" id="Layer_1" x="0px" y="0px" width="649.094px" height="383.274px" viewBox="0 0 649.094 383.274" enable-background="new 0 0 649.094 383.274" xml:space="preserve">
<g>
	<g>
		<path fill="#E04F36" d="M591.936 152.01c0.121 0.5 0.3 0.9 0.3 1.29c0.012 25 0 50 0 74.9 c-0.195 0.217-0.239 0.292-0.304 0.332c-0.065 0.04-0.149 0.062-0.227 0.066c-0.558 0.027-1.116 0.066-1.673 0.1 c-177.336 0.003-354.672 0.003-532.171 0.003c-0.073-0.453-0.196-0.975-0.232-1.502c-0.049-0.717-0.041-1.439-0.041-2.158 c-0.002-23.278-0.001-46.555-0.001-69.833c0-0.86 0-1.72 0-2.831c1.165 0 2.1 0 3 0 c63.593-0.017 127.186-0.019 190.779-0.056c52.392-0.031 104.784-0.112 157.175-0.154c44.635-0.036 89.269-0.046 133.904-0.072 c15.598-0.009 31.196-0.033 46.794-0.05C590.143 152 591 152 591.9 152.01z M487.628 162.6 c-4.595 0-9.036 0-13.426 0c-4.941 7.773-9.605 15.56-14.72 23.517c-5.158-8.009-9.846-15.867-14.71-23.491 c-4.303-0.394-11.842-0.253-13.432 0.231c0 18.6 0 37.2 0 55.768c2.091 0.5 10.1 0.4 12.216-0.035 c0-1.598 0-3.258 0-4.917c0-1.679 0-3.358 0-5.037c0-1.679 0-3.358 0-5.037c0-1.759 0-3.518 0-5.277c0-1.679 0-3.358 0-5.037 c0-1.679-0.01-3.358 0.003-5.037c0.012-1.621-0.058-3.25 0.473-4.959c5.034 7.6 10.1 15.2 15.2 23.1 c0.655-0.938 1.163-1.633 1.636-2.351c4.222-6.406 8.426-12.823 12.67-19.213c0.43-0.648 0.68-1.548 1.722-1.868 c0 11.8 0 23.4 0 34.946c0 0.2 0 0.3 0.1 0.471c0.014 0.1 0 0.2 0.1 0.2 c0.041 0.1 0.1 0.1 0.2 0.154c2.549 0.3 10.1 0.3 12.004-0.122C487.628 200 487.6 181.4 487.6 162.594z M129.047 218.798c0.668 0.1 1.1 0.1 1.6 0.149c8.475 0 17 0.1 25.426-0.021 c3.677-0.034 7.337-0.426 10.835-1.72c6.032-2.231 9.706-6.322 10.056-12.938c0.292-5.518-1.497-10.053-6.47-12.967 c-0.688-0.403-1.41-0.748-2.109-1.135c-0.459-0.254-0.904-0.535-1.479-0.879c0.793-0.602 1.435-1.066 2.051-1.563 c2.179-1.755 3.724-3.936 4.423-6.673c1.919-7.506-1.523-14.236-8.745-17.026c-3.017-1.165-6.165-1.584-9.396-1.572 c-7.996 0.029-15.991 0.007-23.987 0.014c-0.697 0.001-1.394 0.07-2.199 0.113C129.047 181.3 129 199.9 129 218.798z M299.301 162.59c-0.11 0.259-0.166 0.328-0.166 0.398c-0.035 11.031-0.066 22.061-0.103 33.092c0 0.053-0.071 0.121-0.126 0.2 c-0.064 0.041-0.146 0.054-0.381 0.133c-8.578-11.262-17.189-22.567-25.829-33.912c-3.808 0.079-7.536-0.13-11.233 0.1 c-0.37 2.679-0.317 54.3 0 56.14c2.407 0.4 10.1 0.3 12.076-0.153c0-11.482 0-23.024 0-34.565 c0.918 0.5 1.5 1.2 2 1.826c7.607 10 15.2 20 22.8 29.937c3.023 4 1.6 3.1 6.5 3.2 c2.061 0 4.1 0 6.1 0.006c0.399-2.084 0.435-53.914 0.067-56.359C307.163 162.6 303.3 162.6 299.3 162.59z M343.826 218.62c0-2.425 0-4.894 0-7.363c0-2.479-0.023-4.959 0.006-7.438c0.029-2.448-0.131-4.907 0.123-7.591 c2.007 0 3.8 0 5.7 0c1.919 0 3.8 0 5.8 0c1.84 0 3.681-0.049 5.5 0.014c1.88 0.1 3.796-0.301 5.8 0.3 c0 2.5 0 5 0 7.472c0 2.479-0.049 5 0 7.438c0.062 2.435-0.277 4.9 0.2 7.3 c3.311 0.4 10.4 0.3 12.046-0.143c0.064-0.142 0.183-0.284 0.183-0.426c0.022-17.594 0.035-35.189 0.045-52.783 c0-0.799-0.034-1.597-0.062-2.396c-0.002-0.069-0.07-0.137-0.114-0.201c-0.045-0.066-0.097-0.127-0.172-0.223 c-3.946 0-7.917 0-12.139 0c0 0.9 0 1.7 0 2.437c0 5.8 0 11.677-0.007 17.515c-0.001 0.679-0.101 1.357-0.165 2.2 c-7.639-0.001-15.044 0.004-22.699-0.004c0-1.038 0-1.817 0-2.596c0-5.838 0.005-11.677-0.007-17.515 c-0.001-0.682-0.091-1.363-0.146-2.123c-2.228 0-4.225-0.02-6.22 0.006c-1.969 0.025-3.948-0.113-5.987 0.1 c0 18.8 0 37.4 0 56.003C333.336 219.1 341.5 219.1 343.8 218.62z M247.025 218.8 c-8.157-19.167-16.156-37.964-24.155-56.76c-3.911 0-7.657 0-11.417 0c-0.213 0.391-0.434 0.727-0.588 1.1 c-7.812 18.379-15.618 36.76-23.422 55.143c-0.027 0.064-0.015 0.2 0 0.226c0.021 0.1 0.1 0.1 0.1 0.2 c2.793 0.4 10.7 0.3 12.448-0.163c1.672-4.066 3.369-8.193 5.057-12.297c7.988 0 15.8 0 23.7 0 c1.741 4.2 3.5 8.4 5.2 12.549C238.347 218.8 242.5 218.8 247 218.846z M520.296 218.7 c0.393-3.745 0.243-54.426-0.153-56.116c-3.752-0.384-10.489-0.252-12.035 0.229c0 18.6 0 37.2 0 55.8 C510 219 517.4 219.1 520.3 218.739z M87.693 184.609c-3.259 0.016-5.934 2.754-5.863 6 c0.069 3.1 2.8 5.7 5.9 5.723c3.255-0.022 5.961-2.795 5.87-6.015C93.528 187.2 90.9 184.6 87.7 184.609z M544.579 184.61c-3.269-0.016-5.946 2.665-5.906 5.917c0.039 3.2 2.6 5.8 5.8 5.78c3.239 0 5.786-2.451 5.84-5.678 C550.367 187.2 547.9 184.6 544.6 184.61z"/>
		<path fill="#E05038" d="M120.136 264.336c-0.139 0.053-0.277 0.153-0.416 0.153c-38.865 0.026-77.731 0.044-116.596 0.1 c-0.613 0-1.226 0-1.744 0c-0.105-0.313-0.147-0.382-0.147-0.452c0-0.077 0.016-0.173 0.064-0.228 c8.717-10.006 17.437-20.008 26.319-30.196c-4.338-5.114-8.872-10.023-13.288-15.035c-4.412-5.008-8.929-9.925-13.51-15.267 c17.652 0 34.9 0 52.4 0c0.005 2.5 0 5 0 7.449c0.002 2.6 0 5.1 0 7.677c0 2.5 0 5 0 7.4 c0 2.5 0 4.9 0 7.371c1.037 0.6 2 0.4 2.9 0.395c15.835 0 31.7 0 47.5 0 c4.877-0.003 9.755-0.066 14.632-0.065c0.676 0 1.4 0.2 2 0.319c-3.593 0.03-7.185 0.085-10.778 0.1 c-17.653 0.009-35.306 0.004-52.959 0.004c-0.761 0-1.523 0-2.284 0c0.587 0.7 1.3 1.1 2 1.4 c16.709 7.6 33.4 15.2 50.1 22.776C110.944 260.3 115.5 262.3 120.1 264.336z"/>
		<path fill="#E04F37" d="M547.901 233.944c0.867-0.063 1.735-0.18 2.602-0.18c14.396-0.011 28.792-0.008 43.188-0.008 c0.873 0 1.7 0 2.5 0c0.746-0.91 0.467-1.824 0.468-2.662c0.011-8.317-0.01-16.635-0.022-24.952c-0.001-0.865 0-1.729 0-2.555 c2.093-0.421 49.291-0.497 51.831-0.072c-4.54 5.106-8.987 10.099-13.424 15.101c-4.394 4.954-8.779 9.917-13.272 15 c8.944 10.2 17.8 20.3 26.8 30.635c-0.932 0.067-1.455 0.135-1.979 0.138c-10.074 0.06-20.149 0.152-30.223 0.2 c-28.072 0.022-56.144 0.01-84.216-0.005c-0.845 0-1.689-0.192-2.534-0.294c4.796-2.186 9.587-4.381 14.388-6.557 c7.494-3.398 14.993-6.784 22.491-10.173c9.172-4.145 18.345-8.285 27.516-12.432c0.466-0.211 0.912-0.465 1.367-0.7 c-0.038-0.11-0.076-0.22-0.114-0.331c-0.777 0-1.555 0-2.332 0c-14.155 0-28.309 0.002-42.464-0.004 C549.654 234 548.8 234 547.9 233.944z"/>
		<path fill="#302B2C" d="M288 346.152c-0.142-19.244 15.613-36.617 36.857-36.597c20.362 0 36.8 16.6 36.7 37.1 c-0.139 19.524-15.693 36.473-36.78 36.461C302.819 383.1 287.7 365 288 346.152z M319.269 343.5 c0.583 0.1 1.2 0.3 1.7 0.432c-6.62-6.619-13.201-13.201-19.88-19.88c-2.32 2.553-4.473 5.416-5.873 8.9 c1.784 0.8 3.4 1.6 4.9 2.346c-0.334 0.189-0.668 0.378-1.002 0.566c-1.463-0.556-2.926-1.111-4.37-1.66 c-1.784 3.645-2.667 8.221-2.228 11.652c9.034 0 18.1 0 27.164-0.012c0.189 0 0.378-0.18 0.88-0.435 c-1.388-0.707-2.542-1.294-3.697-1.882c0.331-0.08 0.665-0.231 0.994-0.222C318.353 343.2 318.8 343.4 319.3 343.459z M321.404 350.675c-0.305 0.251-0.633 0.48-0.912 0.758c-5.805 5.796-11.606 11.597-17.403 17.4 c-0.262 0.263-0.476 0.575-0.697 0.845c2.376 2.7 6.2 5.2 9 5.984c0.942-2.066 1.893-4.15 2.844-6.234 c0.123 0.5 0.2 1 0.4 1.557c-0.686 1.768-1.371 3.536-2.091 5.39c3.702 1.6 7.5 2.3 11.4 2.4 c0.376-2.504 0.317-26.119-0.05-27.976c-0.076-0.004-0.207-0.035-0.219-0.009c-1.016 2.156-2.023 4.317-3.031 6.5 c-0.801-0.602-0.605-1.351-0.307-2.112c0.513-1.307 1.03-2.613 1.546-3.92c0.07-0.361 0.14-0.721 0.21-1.082 C321.829 350.3 321.6 350.5 321.4 350.675z M329.45 334.459c0.543 1.1 0.1 2.175-0.359 3.2 c-0.654 1.584-1.324 3.161-2.103 5.018c1.803-1.093 18.566-17.769 20.11-19.905c-2.6-2.471-5.482-4.507-8.891-5.964 c-0.292 0.589-0.52 1.002-0.707 1.434c-1.146 2.636-2.275 5.278-3.426 7.912c-0.254 0.581-0.529 1.162-0.874 1.7 c-0.288 0.442-0.666 0.28-0.982-0.041c1.591-3.811 3.181-7.623 4.768-11.426c-3.323-1.648-8.148-2.649-11.505-2.399 c-0.057 0.289-0.169 0.596-0.169 0.903c-0.01 8.799-0.011 17.6 0 26.397c0 0.2 0.2 0.5 0.5 1.1 c0.523-1.154 0.869-1.939 1.232-2.716C327.819 337.9 328.6 336.2 329.4 334.459z M322.54 342.4 c-3.42-8.612-6.841-17.223-10.254-25.816c-3.737 1.151-8.442 4.364-9.823 6.617C307.27 328.4 320.5 341.4 322.5 342.35z M329.143 346.96c1.975 1.7 23.9 11.1 25.8 11.36c1.429-3.609 2.274-7.337 2.252-11.36 C347.701 347 338.4 347 329.1 346.96z M301.269 368.787c4.316-3.702 18.89-18.536 19.863-20.345 c-4.671 1.7-8.998 3.487-13.336 5.232c-4.327 1.74-8.735 3.298-13.01 5.274C296.423 362.7 298.5 365.9 301.3 368.787z M327.165 350.108c0.34 2.1 9.3 24.4 10.4 26.057c3.597-1.536 6.813-3.639 9.612-6.405 C341.768 363.8 328.7 351 327.2 350.108z M348.121 323.797c-6.396 6.396-12.604 12.603-18.809 18.8 c-0.28 0.28-0.53 0.59-0.782 0.895c-0.043 0.052-0.045 0.159-0.029 0.233c0.013 0.1 0.1 0.1 0.3 0.4 c8.556-3.399 17.188-6.828 25.89-10.285C353.109 330 351 326.8 348.1 323.797z M325.659 350.2 c-0.219 0.86-0.352 1.14-0.352 1.421c-0.011 9.011-0.009 18.023-0.009 27.18c3.862-0.068 7.336-0.684 10.886-2.107 C332.721 368 329.3 359.4 325.7 350.207z M354.321 359.727c-8.65-3.735-17.167-7.413-26.012-11.232 c1.102 1.8 17.6 18.5 20 20.223C350.737 366.1 352.7 363.2 354.3 359.727z M357.223 345.7 c-0.085-3.853-0.738-7.333-2.087-10.687c-6.35 2.039-24.626 9.52-25.989 10.687C338.503 345.7 347.7 345.7 357.2 345.681z M294.265 357.524c0.328 0 0.5 0 0.614-0.006c8.304-3.276 16.606-6.556 24.899-9.857c0.208-0.083 0.317-0.415 0.537-0.721 c-6.423-0.337-26.052-0.196-27.971 0.2C292.251 350.8 293 354.2 294.3 357.524z M323.587 341.9 c0.853-7.34 0.675-26.21 0.184-28.065c-3.492 0.238-6.944 0.69-10.464 2.167C316.75 324.7 320.2 333.3 323.6 341.873z"/>
		<path fill="#020201" d="M120.611 264.558c-4.698-2.092-9.409-4.156-14.093-6.28c-17.113-7.76-34.217-15.54-51.322-23.316 c-0.709-0.322-1.397-0.688-1.998-1.403c0.779 0 1.6 0 2.3 0c18.072 0 36.1 0 54.215-0.004 c3.678-0.002 7.356-0.058 11.033-0.089c0.069 0.6 0.2 1.3 0.2 1.916c0.013 9 0 18.072-0.008 27.1 C120.972 263.2 120.7 263.9 120.6 264.558z"/>
		<path fill="#241F20" d="M548.257 233.361c0.893 0 1.8 0.1 2.7 0.105c14.427 0 28.9 0 43.3 0 c0.792 0 1.6 0 2.4 0c0.039 0.1 0.1 0.2 0.1 0.337c-0.464 0.239-0.919 0.498-1.394 0.7 c-9.347 4.227-18.697 8.447-28.045 12.671c-7.643 3.454-15.286 6.905-22.924 10.368c-4.893 2.218-9.777 4.455-14.664 6.7 c-0.093-0.548-0.266-1.097-0.267-1.645c-0.017-9.26-0.013-18.52-0.008-27.779c0-0.392 0.046-0.784 0.086-1.414 C535.801 233.4 542 233.4 548.3 233.361z"/>
		<path fill="#2A2526" d="M445.086 87.896c1.075-1.419 1.986-2.621 3.02-3.986c1.778 1.4 3.5 2.7 5.3 4.1 c8.898-11.689 17.684-23.23 26.575-34.909c-1.856-1.42-3.548-2.715-5.299-4.055c1.012-1.334 1.92-2.531 2.97-3.916 c11.352 8.6 22.6 17.2 33.9 25.827c-3.2 4.207-6.283 8.26-9.502 12.492c-1.367-0.929-2.603-1.836-3.844-2.983 c2.164-2.873 4.26-5.658 6.467-8.588c-6.849-5.217-13.575-10.341-20.489-15.608c-3.781 4.955-7.494 9.822-11.301 14.8 c1.684 1.7 3.7 3 5.5 4.446c1.817 1.4 3.7 2.8 5.5 4.216c1.891 1.4 3.8 2.9 5.8 4.4 c-1.012 1.345-1.906 2.534-2.924 3.887c-5.741-4.355-11.32-8.586-17.012-12.904c-4.102 5.39-8.111 10.655-12.252 16.1 c6.856 5.2 13.6 10.4 20.5 15.624c2.308-3.017 4.531-5.924 6.905-9.026c1.335 1 2.6 1.9 3.9 2.9 c-3.341 4.383-6.576 8.626-9.863 12.938C467.646 105.1 456.5 96.6 445.1 87.896z"/>
		<path fill="#292526" d="M139.997 76.142c-1.772 1.437-3.432 2.783-5.169 4.192c-1.074-1.321-2.02-2.484-3.056-3.758 c0.519-0.467 0.901-0.845 1.317-1.18c4.789-3.862 9.578-7.723 14.378-11.571c2.52-2.02 5.286-3.559 8.469-4.288 c7.505-1.719 15.9 4.8 16 12.546c0.037 1.858-0.104 2.421-1.408 5.486c0.617-0.1 1.139-0.114 1.611-0.273 c5.015-1.692 9.276-0.286 13 3.221c5.536 5.3 6.5 13.7 1.3 19.894c-1.696 1.998-3.631 3.831-5.646 5.5 c-4.784 3.992-9.682 7.848-14.536 11.755c-0.243 0.196-0.518 0.353-0.88 0.597c-1.007-1.245-1.998-2.468-3.086-3.813 c1.747-1.377 3.364-2.65 5.183-4.083c-2.934-3.901-6.052-7.599-9.06-11.38c-3.034-3.814-6.112-7.594-9.171-11.388 C146.189 83.8 143.1 80 140 76.142z M171.754 107.181c3.146-2.77 6.152-5.275 8.977-7.969 c1.19-1.134 2.178-2.573 2.942-4.038c1.292-2.474 1.229-5.075 0.004-7.611c-2.854-5.909-8.628-7.824-14.429-4.692 c-3.882 2.095-6.996 5.218-10.637 7.972C162.999 96.3 167.2 101.6 171.8 107.181z M144.053 72.8 c3.953 4.9 7.8 9.7 11.7 14.576c3.37-2.656 6.65-5.166 9.425-8.264c0.318-0.355 0.595-0.752 0.854-1.153 c1.498-2.322 1.756-4.784 0.595-7.29c-0.53-1.144-1.22-2.254-2.024-3.224c-2.842-3.43-6.563-4.181-10.492-2.087 C150.463 67.3 147.4 70.1 144.1 72.76z"/>
		<path fill="#292526" d="M263.614 25.089c-1.536 0.529-2.946 1.014-4.415 1.52c-0.232-0.33-0.435-0.568-0.581-0.837 c-3.371-6.204-10.137-8.445-16.571-7.561c-1.416 0.195-2.838 0.521-4.19 0.982c-10.411 3.55-14.007 12.256-13.467 20.8 c0.376 6 2.5 11.4 6.3 16.027c5.007 6.2 11.6 8.4 19.2 6.976c7.424-1.356 12.503-5.735 15.074-12.894 c1.036-2.884 1.465-5.877 1.435-9.137c1.823 0 3.4 0.8 5.2 1.186c0.38 2.011-0.137 3.97-0.546 5.9 c-2.339 10.919-9.24 17.381-19.945 19.904c-11.773 2.775-21.08-2.264-26.723-10.903c-0.871-1.333-1.654-2.742-2.312-4.191 c-2.877-6.336-4.105-12.932-2.716-19.843c2.002-9.96 9.612-17.414 19.603-19.335c3.909-0.752 7.8-0.851 11.6 0.5 c1.632 0.6 3.2 1.5 5 2.355c-0.28-2.404-1.443-4.485-1.968-6.924c1.467-0.482 2.861-0.94 4.402-1.446 C259.874 13.9 261.7 19.4 263.6 25.089z"/>
		<path fill="#292425" d="M393.442 16.156c0.419-2.17 0.838-4.341 1.307-6.768c1.506 0.3 3 0.5 4.6 0.8 c-1.067 5.892-2.101 11.599-3.174 17.521c-1.614-0.283-3.07-0.539-4.621-0.811c-0.052-0.676-0.114-1.22-0.134-1.766 c-0.161-4.442-2.153-7.966-5.515-10.739c-7.223-5.954-21.119-7.79-29.114 3.832c-4.905 7.13-6.166 15.055-3.733 23.3 c2.179 7.4 7.6 11.6 15 13.377c9.489 2.2 17.029-2.79 21.394-9.322c0.57-0.853 1.081-1.745 1.747-2.828 c1.249 1.4 2.4 2.7 3.7 4.212c-4.21 7.019-10.169 12.031-18.819 13.215c-4.84 0.662-9.546-0.023-14.101-1.821 c-8.538-3.371-13.543-9.68-15.148-18.599c-1.391-7.732-0.045-15.15 3.736-22.016c4.215-7.655 10.722-12.183 19.485-13.009 c6.333-0.597 12.2 1 17.4 4.75c1.902 1.4 3.4 3.1 4.6 5.139c0.324 0.5 0.6 1.1 1 1.6 C393.15 16.2 393.3 16.2 393.4 16.156z"/>
		<path fill="#2A2526" d="M313.307 50.308c2.531-0.163 4.901-0.316 7.45-0.481c0.139 1.6 0.3 3.2 0.4 5 c-6.866 0.423-13.532 0.833-20.282 1.248c-0.413-1.716-0.401-3.275-0.272-4.935c2.358-0.154 4.653-0.305 7.009-0.459 c0-1.501 0.066-2.913-0.012-4.317c-0.239-4.308-0.582-8.612-0.776-12.922c-0.054-1.189-0.421-2.131-1.092-3.068 c-5.308-7.403-10.59-14.825-16.04-22.464c-1.992 0.088-4.122 0.182-6.238 0.275c-0.622-1.824-0.674-2.411-0.398-4.841 c6.312-0.389 12.659-0.779 19.083-1.175c0.488 1.6 0.2 3.2 0.4 4.808c-2.148 0.191-4.157 0.37-6.512 0.6 c4.405 6.2 8.6 12.2 13 18.373c1.539-2.242 2.486-4.499 3.615-6.65c1.113-2.121 2.198-4.257 3.29-6.389 c1.119-2.185 2.231-4.373 3.503-6.869c-2.305 0.149-4.263 0.275-6.422 0.415c-0.141-1.585-0.272-3.063-0.412-4.637 c2.094-0.753 4.183-0.433 6.211-0.611c2.149-0.188 4.306-0.289 6.46-0.424c2.056-0.129 4.112-0.252 6.363-0.39 c0.102 1.7 0.2 3.1 0.3 4.704c-2.253 0.682-4.522 0.259-6.752 0.655c-3.569 6.962-7.015 13.987-10.755 20.9 c-1.788 3.282-2.643 6.475-2.09 10.242c0.543 3.7 0.5 7.5 0.7 11.241C313.154 48.7 313.2 49.4 313.3 50.308z"/>
		<path fill="#2A2526" d="M440.016 25.828c-0.702 1.552-1.314 2.905-2.021 4.468c-2.065-0.927-4.003-1.796-5.928-2.66 c-1.101 1.443-16.922 36.26-18.162 39.991c6.052 2.7 12.1 5.5 18.4 8.264c2.486-5.495 4.878-10.782 7.323-16.186 c1.765 0.4 3.3 1.2 4.8 2.075c-3.12 6.923-6.188 13.731-9.343 20.733c-11.415-5.139-22.739-10.238-34.157-15.378 c0.32-1.67 1.129-3.012 1.889-4.609c2.008 0.9 3.9 1.8 5.9 2.675c1.114-1.455 16.872-36.063 18.182-39.927 c-1.932-0.871-3.879-1.748-5.924-2.67c0.419-1.616 1.153-2.996 1.931-4.528C428.556 20.7 434.2 23.2 440 25.828z"/>
		<path fill="#2A2526" d="M186.373 43.06c-2.091 1.197-3.884 2.223-5.813 3.327c-1.067-1.266-1.587-2.762-2.58-4.214 c5.501-3.105 10.84-6.119 16.406-9.261c0.806 1.4 1.6 2.7 2.5 4.252c-1.998 1.127-3.91 2.206-5.975 3.4 c7.213 12.8 14.3 25.5 21.5 38.232c1.997-1.151 3.849-2.219 5.875-3.386c0.826 1.4 1.6 2.8 2.5 4.3 c-5.519 3.107-10.913 6.144-16.427 9.248c-0.849-1.484-1.593-2.783-2.414-4.219c1.799-1.474 4.029-2.052 5.862-3.531 C200.713 68.5 193.6 55.9 186.4 43.06z"/>
		<path fill="#322E2E" d="M191.296 256.251c2.265 0 4.3 0 6.4 0c0.659 0.7 0.4 1.5 0.3 2.4 c-0.651 0.128-1.325 0.26-2.12 0.417c0 4.6 0 9.2 0 13.986c0.641 0.1 1.3 0.3 2.1 0.5 c0.039 0.6 0.1 1.3 0.1 2.117c-2.495 0.357-4.854 0.141-7.355 0.141c0-0.781 0-1.458 0-2.306 c0.63-0.087 1.302-0.179 2.087-0.287c0-4.239 0-8.401 0-12.562c-1.617 2.393-2.417 5.111-3.498 7.7 c-1.067 2.557-1.916 5.207-3.219 7.941c-1.35-1.779-1.711-3.678-2.438-5.401c-0.713-1.69-1.305-3.432-2.008-5.127 c-0.716-1.723-1.165-3.57-2.429-5.638c0 4.6 0 8.7 0 12.975c0.524 0.1 1.1 0.3 1.9 0.4 c0.059 0.6 0.1 1.3 0.2 1.842c-0.592 0.585-2.745 0.659-6.887 0.333c-0.054-0.636-0.111-1.306-0.185-2.166 c0.773-0.121 1.439-0.226 2.023-0.318c0.484-0.369 0.577-10.768 0.189-14.167c-0.654-0.108-1.335-0.221-2.086-0.346 c0-0.789 0-1.487 0-2.32c2.204 0 4.3 0 6.7 0c1.612 4.2 3.3 8.4 5.1 13 C187.935 264.8 189.6 260.6 191.3 256.251z"/>
		<path fill="#302A2B" d="M229.647 273.177c0.829 0.1 1.5 0.2 2.3 0.305c0 0.7 0 1.4 0 2.204c-1.653 0-3.216 0-4.798 0 c-0.168-0.396-0.318-0.747-0.466-1.095c-0.149-0.009-0.33-0.078-0.417-0.016c-0.988 0.702-2.036 1.203-3.267 1.4 c-3.615 0.492-7.398-1.991-7.529-6.181c-0.073-2.327 0.309-4.438 2.098-6.117c2.378-2.232 5.702-2.293 7.747-1.022 c0.389 0.2 0.8 0.5 1.4 0.807c0.317-1.609 0.161-2.991 0.142-4.5c-0.881-0.137-1.634-0.254-2.411-0.375 c0-0.772 0-1.456 0-2.249c1.696 0 3.3 0 5.1 0c0.374 1.8 0.1 3.7 0.2 5.577c0.042 1.8 0 3.7 0 5.5 C229.647 269.3 229.6 271.2 229.6 273.177z M226.877 268.834c-0.008-2.618-1.728-4.457-4.209-4.5 c-2.422-0.042-4.284 2.016-4.27 4.721c0.013 2.7 1.7 4.5 4.2 4.487C225.088 273.5 226.9 271.6 226.9 268.834z"/>
		<path fill="#302A2B" d="M292.874 268.744c-0.104 1.7 0.7 2.9 2 3.876c1.082 0.8 2.3 1 3.6 0.8 c1.292-0.263 2.249-1.376 2.395-2.679c0.139-1.24-0.443-2.19-1.805-2.756c-0.806-0.335-1.668-0.536-2.5-0.813 c-1.059-0.352-2.152-0.636-3.163-1.098c-2.324-1.063-3.318-3.08-2.932-5.713c0.329-2.243 2.141-3.941 4.549-4.267 c1.721-0.233 3.3 0.1 5 0.996c0.622-0.952 1.566-1.052 2.728-0.764c0.412 1.8 0.2 3.7 0.2 5.8 c-0.769 0.063-1.449 0.118-2.095 0.171c-0.894-2.699-2.604-3.961-4.952-3.623c-0.677 0.097-1.409 0.394-1.939 0.8 c-1.144 0.919-0.998 2.6 0.3 3.472c0.587 0.4 1.3 0.6 2 0.809c1.218 0.4 2.5 0.6 3.7 1.1 c3.104 1.1 4.7 4 3.9 7.018c-0.759 2.921-3.731 4.839-6.853 4.273c-1.228-0.223-2.394-0.79-3.676-1.23 c-0.389 1.24-1.388 1.077-2.545 0.854c0-2.244 0-4.519 0-6.915C291.381 268.7 292.1 268.7 292.9 268.744z"/>
		<path fill="#322E2E" d="M347.905 258.982c-0.726-0.084-1.345-0.155-2.186-0.253c-0.041-0.717-0.084-1.474-0.126-2.206 c1.916-0.4 11.245-0.51 15.026-0.194c0 1.9 0 3.8 0 5.807c-0.691 0.039-1.37 0.078-2.227 0.1 c-0.085-1.132-0.161-2.136-0.247-3.273c-2.304-0.296-4.575-0.133-6.969-0.107c0 1.8 0 3.5 0 5.3 c1.87 0.6 3.9 0.1 6 0.389c0.035 0.7 0.1 1.4 0.1 2.451c-2.141 0-4.1 0-6.166 0c0 2.1 0 4 0 6.1 c0.745 0.1 1.5 0.3 2.3 0.411c0 0.7 0 1.4 0 2.215c-2.618 0-5.132 0-7.753 0c0-0.761 0-1.458 0-2.247 c0.693-0.101 1.385-0.201 2.202-0.319C347.905 268.5 347.9 263.9 347.9 258.982z"/>
		<path fill="#302A2B" d="M247.815 269.713c-3.933 0-7.506 0-11.312 0c0.084 1.9 0.9 3 2.4 3.6 c2.451 1.1 4.5 0.2 6.419-1.717c0.702 0.3 1.5 0.6 2.2 0.962c-3.007 4.397-9.452 4.828-12.724 1 c-1.698-1.982-2.078-5.482-0.858-7.902c1.301-2.579 4.118-4.159 7.133-3.845c2.959 0.3 5 1.9 6.1 4.7 C247.507 267.4 247.6 268.4 247.8 269.713z M244.667 267.602c-0.972-2.632-2.435-3.716-4.561-3.531 c-1.958 0.171-3.052 1.272-3.45 3.531C239.268 267.6 241.9 267.6 244.7 267.602z"/>
		<path fill="#322E2E" d="M395.91 273.24c0.877 0.1 1.4 0.1 2.2 0.191c0.048 0.7 0.1 1.4 0.2 2.2 c-2.487 0.277-4.835 0.094-7.318 0.125c0-0.821 0-1.493 0-2.326c0.689-0.065 1.366-0.13 2.144-0.203c0-2.804 0-5.493 0-8.368 c-0.629-0.117-1.293-0.242-2.138-0.399c-0.044-0.633-0.091-1.307-0.155-2.222c1.157-0.019 2.168-0.067 3.177-0.044 c0.91 0 2.07-0.417 2.1 1.142c1.194-0.46 2.198-0.953 3.257-1.234c2.629-0.696 4.5 0.5 4.8 3.2 c0.179 1.7 0.1 3.4 0.1 5.031c0.012 0.9 0 1.8 0 2.783c0.705 0.1 1.4 0.3 2.1 0.4 c0 0.7 0 1.4 0 2.142c-1.615 0-3.111 0-4.768 0c-0.065-0.489-0.19-1.013-0.195-1.538c-0.022-2.478 0.03-4.958-0.025-7.436 c-0.044-1.954-0.913-2.545-2.801-1.965c-0.601 0.185-1.156 0.528-1.725 0.813c-0.632 0.316-0.924 0.828-0.919 1.5 C395.918 269.1 395.9 271.1 395.9 273.24z"/>
		<path fill="#322E2E" d="M279.442 273.207c0.929 0.1 1.5 0.2 2.2 0.271c0 0.8 0 1.4 0 2.198c-1.678 0-3.236 0-5.04 0 c0-1.278 0.002-2.455 0-3.632c-0.004-1.917 0.046-3.836-0.036-5.75c-0.063-1.479-0.77-2.027-2.217-1.652 c-1.049 0.272-2.021 0.837-3.041 1.277c0 2.5 0 4.8 0 7.253c0.635 0.1 1.3 0.2 2.1 0.344c0 0.7 0 1.3 0 2.1 c-2.432 0-4.789 0-7.275 0c0-0.735 0-1.403 0-2.218c0.735-0.061 1.415-0.118 2.169-0.181c0-2.837 0-5.531 0-8.409 c-0.623-0.108-1.286-0.223-2.139-0.371c-0.055-0.624-0.113-1.294-0.188-2.14c1.538-0.266 2.961-0.16 4.361-0.093 c0.408 0 0.8 0.5 1.4 0.953c0.706-0.274 1.693-0.754 2.733-1.044c2.847-0.793 4.8 0.5 4.9 3.5 C279.529 268.1 279.4 270.6 279.4 273.207z"/>
		<path fill="#322E2E" d="M335.086 273.222c0.788 0.1 1.4 0.2 2.1 0.243c0 0.7 0 1.4 0 2.2c-1.578 0-3.071 0-4.724 0 c-0.063-0.478-0.187-1.004-0.192-1.531c-0.023-2.479 0.034-4.959-0.03-7.436c-0.05-1.966-0.906-2.551-2.812-1.945 c-0.819 0.26-1.568 0.743-2.486 1.192c-0.172 2.401-0.112 4.767-0.035 7c0.161 0.2 0.2 0.3 0.3 0.3 c0.55 0.1 1.1 0.1 1.8 0.188c0.046 0.7 0.1 1.3 0.1 2.156c-2.504 0.353-4.86 0.137-7.358 0.1 c0-0.786 0-1.454 0-2.298c0.679-0.063 1.357-0.125 2.135-0.197c0-2.879 0-5.639 0-8.474c-0.699-0.079-1.316-0.148-2.114-0.238 c-0.06-0.678-0.12-1.348-0.191-2.147c1.368-0.342 2.64-0.086 3.878-0.208c0.884-0.087 1.3 0.3 1.6 1.1 c1.046-0.403 2.045-0.892 3.099-1.174c2.729-0.729 4.6 0.6 4.8 3.388c0.134 1.7 0 3.4 0.1 5 C335.09 271.4 335.1 272.3 335.1 273.222z"/>
		<path fill="#322E2E" d="M317.666 273.212c0.833 0.1 1.4 0.2 2.1 0.249c0 0.8 0 1.4 0 2.3 c-1.768-0.289-3.647 0.906-5.055-1.018c-1.55 0.979-3.164 1.55-5.004 1.12c-3.143-0.735-4.502-4.275-2.518-6.723 c1.322-1.631 3.12-2.147 5.152-1.775c0.776 0.1 1.5 0.4 2.3 0.671c0.426-1.969 0.236-2.932-0.914-3.467 c-1.796-0.836-3.411-0.446-4.752 1.127c-0.766-0.229-1.499-0.448-2.333-0.697c0.512-1.421 1.52-2.159 2.716-2.657 c1.758-0.732 3.581-0.718 5.392-0.228c1.728 0.5 2.7 1.6 2.8 3.427c0.065 1.1 0.1 2.2 0.1 3.3 C317.674 270.2 317.7 271.6 317.7 273.212z M312.131 269.454c-2.092 0.022-3.137 0.924-3.13 2.2 c0.007 1.4 1.2 2.4 2.8 2.121c0.903-0.173 1.809-0.617 2.576-1.141c0.905-0.618 0.821-1.817-0.136-2.35 C313.458 269.9 312.5 269.6 312.1 269.454z"/>
		<path fill="#302B2C" d="M202.957 265.728c-0.887-0.281-1.555-0.493-2.325-0.737c0.565-1.364 1.514-2.144 2.723-2.649 c1.684-0.703 3.436-0.697 5.17-0.303c1.823 0.4 3 1.6 3.1 3.494c0.112 1.7 0.1 3.3 0.1 5 c0.013 0.9 0 1.7 0 2.671c0.789 0.1 1.4 0.2 2.1 0.24c0 0.7 0 1.4 0 2.196c-1.494 0-2.903 0-4.338 0 c-0.208-0.275-0.438-0.579-0.692-0.915c-0.527 0.265-1.012 0.531-1.516 0.758c-1.206 0.543-2.468 0.665-3.737 0.3 c-1.761-0.5-2.928-1.643-3.21-3.478c-0.283-1.841 0.482-3.279 2.052-4.251c1.192-0.738 2.504-1.042 3.896-0.73 c0.772 0.2 1.5 0.4 2.3 0.659c0.486-1.943 0.317-2.901-0.846-3.445C205.95 263.7 204.3 264.1 203 265.728z M205.768 273.862c0.861-0.031 1.871-0.485 2.722-1.244c0.698-0.622 0.616-1.721-0.135-2.255 c-0.938-0.665-1.987-0.999-3.149-0.887c-1.42 0.137-2.237 1.018-2.175 2.333C203.09 273.1 204 273.9 205.8 273.862z"/>
		<path fill="#322E2E" d="M383.96 268.087c0.143-1.501 0.215-2.77-1.152-3.545c-1.347-0.764-2.922-0.404-4.828 1.1 c-0.565-0.148-1.179-0.298-1.785-0.478c-0.131-0.039-0.229-0.189-0.403-0.341c0.494-1.256 1.491-2.005 2.691-2.507 c1.682-0.704 3.441-0.704 5.171-0.28c1.796 0.4 3 1.6 3 3.521c0.055 1.5 0.1 3 0.1 4.5 c0.016 1 0 1.9 0 2.984c0.436 0.1 0.8 0.2 1.2 0.243c0.298 0.1 0.6 0.1 1 0.1 c0 0.8 0 1.5 0 2.307c-1.704-0.322-3.529 0.872-4.979-1.008c-0.481 0.234-1.024 0.523-1.586 0.8 c-1.213 0.531-2.482 0.639-3.745 0.263c-1.651-0.491-2.797-1.553-3.104-3.295c-0.32-1.819 0.288-3.324 1.861-4.34 c1.248-0.806 2.628-1.155 4.111-0.801C382.237 267.5 383 267.8 384 268.087z M381.174 273.9 c0.428-0.204 1.401-0.537 2.223-1.094c1.007-0.683 0.915-1.851-0.091-2.513c-0.88-0.579-1.851-0.866-2.914-0.785 c-1.347 0.103-2.35 1.038-2.361 2.196C378.019 272.9 379.1 273.9 381.2 273.858z"/>
		<path fill="#302A2B" d="M474.446 269.043c0.107 4.613-3.771 7.263-7.317 7.175c-4.035-0.1-7.026-3.201-7.002-7.279 c0.025-4.19 3.118-7.186 7.35-7.121C471.574 261.9 474.5 264.9 474.4 269.043z M471.532 268.9 c-0.046-2.546-1.96-4.505-4.336-4.437c-2.363 0.067-4.22 2.143-4.16 4.65c0.061 2.6 1.9 4.4 4.4 4.4 C469.858 273.4 471.6 271.5 471.5 268.864z"/>
		<path fill="#302A2B" d="M431.719 275.693c0-1.547 0-2.951 0-4.543c0.699-0.047 1.374-0.092 1.995-0.134 c1.327 2.4 3 3.2 5.1 2.398c0.649-0.25 1.112-0.624 1.13-1.365c0.019-0.782-0.528-1.152-1.156-1.334 c-0.917-0.264-1.872-0.391-2.795-0.638c-0.764-0.205-1.546-0.416-2.245-0.772c-1.299-0.661-2.036-1.737-2.057-3.253 c-0.022-1.611 0.733-2.797 2.123-3.458c0.836-0.398 1.825-0.615 2.753-0.64c0.935-0.025 1.9 0.4 2.8 0.4 c0.844 0 1.701-0.117 2.693-0.2c0 1.6 0 3 0 4.455c-0.704 0.036-1.323 0.067-2.007 0.1 c-0.66-1.51-1.692-2.526-3.415-2.455c-0.535 0.022-1.16 0.13-1.562 0.437c-0.375 0.287-0.693 0.891-0.688 1.4 c0.003 0.3 0.5 0.8 0.9 0.929c0.822 0.3 1.7 0.4 2.6 0.564c0.7 0.1 1.4 0.3 2.1 0.5 c1.946 0.6 2.9 2 2.9 3.909c-0.039 1.751-1.056 3.217-2.865 3.676c-1.13 0.287-2.364 0.301-3.54 0.2 c-1.149-0.063-2.259-0.611-3.452-0.119C432.63 275.9 432.2 275.7 431.7 275.693z"/>
		<path fill="#302B2C" d="M457.9 262.339c0 1.6 0 2.832-0.007 4.108c-0.003 0.223-0.098 0.445-0.183 0.8 c-0.693 0.04-1.38 0.08-2.171 0.126c-0.19-0.428-0.31-0.797-0.504-1.122c-1.529-2.549-4.958-2.557-6.483-0.024 c-1.082 1.797-0.773 4.7 0.7 6.276c1.337 1.4 3.9 1.6 5.4 0.236c0.538-0.451 0.966-1.032 1.546-1.663 c0.618 0.3 1.2 0.6 2 0.994c-0.446 1.431-1.285 2.466-2.478 3.126c-4.806 2.658-10.311-0.028-10.718-5.615 c-0.137-1.888 0.166-3.667 1.403-5.182c1.783-2.183 4.097-3.064 6.818-2.413c1.149 0.3 2.2 0.6 3.4 0.2 C456.898 262.1 457.3 262.3 457.9 262.339z"/>
		<path fill="#302B2C" d="M418.849 271.098c0.635 0.3 1.3 0.6 1.9 0.919c-1.503 4.089-6.816 5.552-10.295 2.9 c-3.641-2.754-3.839-8.624-0.401-11.558c1.559-1.331 3.43-1.999 5.336-1.437c1.554 0.5 3 0.4 4.5 0.3 c0.14-0.008 0.3 0.1 0.5 0.214c0 1.5 0 3.1 0 4.784c-0.755 0.044-1.439 0.085-2.165 0.1 c-0.224-0.447-0.396-0.798-0.576-1.145c-0.706-1.358-1.895-1.917-3.351-1.871c-1.475 0.047-2.559 0.822-3.246 2.1 c-0.942 1.776-0.654 4.3 0.6 5.874c1.324 1.6 3.9 1.8 5.6 0.376C417.861 272.3 418.3 271.7 418.8 271.098z"/>
		<path fill="#302A2B" d="M367.877 273.268c1.172 0.1 2 0.1 2.9 0.156c0.043 0.7 0.1 1.4 0.1 2.2 c-2.82 0.339-5.49 0.053-8.297 0.184c0-0.854 0-1.521 0-2.31c0.847-0.102 1.691-0.204 2.588-0.312c0-2.77 0-5.476 0-8.319 c-0.828-0.125-1.665-0.251-2.612-0.393c0-0.722 0-1.404 0-2.178c1.555 0 3 0 4.6 0c0.129 0.5 0.3 1 0.4 1.8 c1.584-1.712 3.353-2.403 5.533-2.11c0.547 0.8 0.2 1.6 0.3 2.6c-0.836 0.082-1.612 0.114-2.371 0.2 c-1.838 0.311-2.657 1.079-2.887 2.97C368.003 269.5 368 271.3 367.9 273.268z"/>
		<path fill="#2A2526" d="M422.682 275.413c0-0.54 0-1.092 0-1.791c0.645-0.157 1.297-0.315 2.037-0.494c0-2.704 0-5.393 0-8.244 c-0.611-0.142-1.264-0.293-1.988-0.462c0-0.682 0-1.296 0-2.012c1.512-0.352 2.988-0.173 4.654-0.147c0 3.6 0 7.2 0 10.8 c0.761 0.2 1.4 0.3 2.1 0.468c0.032 0.6 0.1 1.3 0.1 1.846C428.92 275.9 424.5 275.9 422.7 275.413z"/>
		<path fill="#302B2C" d="M262.158 262.282c0 3.7 0 7.2 0 10.862c0.682 0.1 1.3 0.2 1.9 0.355c0 0.7 0 1.4 0 2.2 c-2.237 0-4.365 0-6.625 0c0-0.743 0-1.413 0-2.189c0.552-0.088 1.081-0.172 1.609-0.258c0.082-0.133 0.234-0.264 0.235-0.396 c0.014-2.63 0.01-5.26 0.01-8.011c-0.578-0.109-1.096-0.207-1.813-0.342c-0.062-0.609-0.129-1.276-0.218-2.157 C258.908 262.1 260.4 262.2 262.2 262.282z"/>
		<path fill="#402021" d="M487.408 266.463c0.486-0.092 0.969-0.252 1.457-0.267c9.395-0.281 17.73-0.093 19.3 0.5 c-0.343 0.217-0.562 0.475-0.781 0.476c-6.447 0.02-12.893 0.018-19.34 0.004c-0.218 0-0.435-0.149-0.653-0.229 C487.428 266.8 487.4 266.6 487.4 266.463z"/>
		<path fill="#402021" d="M162.255 266.931c-0.615 0.14-0.914 0.268-1.212 0.267c-6.447-0.014-12.893-0.041-19.34-0.08 c-0.111-0.001-0.221-0.184-0.344-0.294c0.09-0.86 0.777-0.624 1.263-0.626c4.538-0.019 9.077-0.013 13.615-0.011 c1.672 0 3.345-0.016 5 0.039C161.518 266.2 161.8 266.6 162.3 266.931z"/>
		<path fill="#322E2E" d="M260.635 256.016c1.02-0.029 1.7 0.6 1.6 1.602c-0.008 0.951-0.753 1.689-1.664 1.6 c-0.785-0.034-1.517-0.751-1.57-1.538C258.986 256.8 259.7 256 260.6 256.016z"/>
		<path fill="#322E2E" d="M426.089 256.015c0.927 0 1.7 0.8 1.6 1.701c-0.058 0.756-0.833 1.511-1.588 1.5 c-0.909 0.043-1.692-0.707-1.706-1.634C424.403 256.7 425.1 256 426.1 256.015z"/>
		<path fill="#433F40" d="M300.152 335.225c0.957 0.4 1.9 0.7 2.9 1.074c4.793 2.1 9.6 4.1 14.4 6.2 c0.646 0.3 1.3 0.6 1.9 0.959c-0.459-0.081-0.916-0.214-1.377-0.227c-0.329-0.009-0.662 0.142-0.994 0.2 c-3.599-1.503-7.21-2.98-10.795-4.517c-2.338-1.003-4.638-2.094-6.955-3.146C299.484 335.6 299.8 335.4 300.2 335.225z"/>
		<path fill="#433F40" d="M315.058 369.89c-0.157 0.366-0.315 0.732-0.472 1.098c-0.123-0.519-0.245-1.038-0.368-1.557 c0 0 0 0 0 0.001C314.503 369.6 314.8 369.7 315.1 369.89z"/>
		<path fill="#E05038" d="M141.263 207.963c0-4.169 0-8.121 0-12.214c0.601-0.047 1.136-0.123 1.672-0.124 c4.307-0.01 8.6 0 12.92-0.009c1.773-0.005 3.5 0.2 5.1 0.922c2.458 1 3.7 2.8 3.6 5.4 c-0.046 2.509-1.324 4.378-3.809 5.225c-1.267 0.432-2.633 0.77-3.961 0.794C151.749 208 146.7 208 141.3 207.963z"/>
		<path fill="#E04F36" d="M141.265 185.093c0-3.923 0-7.645 0-11.312c0.217-0.137 0.345-0.289 0.473-0.289 c4.396-0.008 8.793-0.034 13.2 0.029c0.938 0 1.9 0.3 2.8 0.568c2.392 0.8 3.7 2.6 3.7 5 c0.031 2.571-1.207 4.435-3.668 5.302c-0.968 0.341-2.016 0.614-3.032 0.63C150.321 185.1 145.9 185.1 141.3 185.093z"/>
		<path fill="#E15239" d="M209.667 194.878c2.36-5.785 4.7-11.52 7.059-17.302c1.123 1.4 6 12.9 7.3 17.3 C222.249 195.3 212.1 195.3 209.7 194.878z"/>
		<path fill="#302B2C" d="M332.077 330.008c-0.089 0.554-0.178 1.108-0.267 1.662c-0.358 0.304-0.706 0.645-1.228 0.3 c0.049-0.207 0.098-0.414 0.147-0.621c0.185-0.454 0.37-0.907 0.555-1.361C331.549 330 331.8 330 332.1 330.008z"/>
		<path fill="#302B2C" d="M332.268 327.818c0.154 0.3 0.3 0.6 0.5 0.954c-0.324 0.105-0.648 0.21-0.971 0.3 C331.929 328.7 332.1 328.2 332.3 327.818z"/>
		<path fill="#302B2C" d="M330.858 333.115c-0.026 0.54-0.027 1.095-0.734 1.228C329.769 333.4 329.9 333.2 330.9 333.115z"/>
		<path fill="#302B2C" d="M331.797 329.026c0.487 0.2 0.5 0.5 0.3 0.953c-0.216-0.151-0.433-0.301-0.649-0.452 C331.558 329.4 331.7 329.2 331.8 329.026z"/>
		<path fill="#433F40" d="M331.438 329.527c0.216 0.2 0.4 0.3 0.6 0.452c0 0-0.01 0.028-0.01 0 c-0.264 0-0.528-0.001-0.792-0.001C331.336 329.8 331.4 329.7 331.4 329.527z"/>
		<path fill="#302B2C" d="M330.582 331.988c0.049-0.207 0.098-0.414 0.147-0.621C330.68 331.6 330.6 331.8 330.6 331.988z"/>
		<path fill="#302B2C" d="M329.851 334.113c-0.172-0.02-0.345-0.04-0.517-0.059c0.199-0.154 0.398-0.307 0.597-0.461 C329.905 333.8 329.9 333.9 329.9 334.113z"/>
		<path fill="#302B2C" d="M316.088 365.07c0.529-1.286 1.059-2.572 1.637-3.976c0.446 0.1 0.8 0.2 1.1 0.4 c-0.792 1.701-1.584 3.402-2.376 5.103c0 0-0.069-0.08-0.069-0.08C316.303 366 316.2 365.5 316.1 365.07z"/>
		<path fill="#302B2C" d="M315.058 369.89c-0.278-0.153-0.555-0.305-0.833-0.458c0.385-0.844 0.77-1.687 1.155-2.531 c0 0 0.1 0.1 0.1 0.098c0.035 0.6 0.1 1.1 0.1 1.679C315.409 369.1 315.2 369.5 315.1 369.89z"/>
		<path fill="#433F40" d="M319.096 359.192l0.111-0.075c0.025-0.444 0.051-0.888 0.076-1.333c-0.06-0.166-0.017-0.3 0.127-0.401 c0.286 0.2 0.6 0.3 0.9 0.475c-0.061 0.178-0.122 0.355-0.184 0.533c-0.092 0.169-0.184 0.338-0.276 0.5 c0.057 0.2 0 0.304-0.128 0.41C319.485 359.3 319.3 359.2 319.1 359.192z"/>
		<path fill="#302B2C" d="M315.38 366.901c0.154-0.376 0.307-0.753 0.461-1.13c0.19 0.2 0.4 0.5 0.6 0.7 c0 0 0.1 0.1 0.1 0.08c-0.151 0.365-0.302 0.729-0.452 1.093c-0.183-0.215-0.366-0.43-0.548-0.646 C315.478 367 315.4 366.9 315.4 366.901z"/>
		<path fill="#433F40" d="M315.478 366.998c0.183 0.2 0.4 0.4 0.5 0.646c-0.147 0.345-0.295 0.689-0.442 1 C315.549 368.1 315.5 367.6 315.5 366.998z"/>
		<path fill="#433F40" d="M318.825 361.006c-0.86-0.262-0.749-0.841-0.371-1.384c0.284-0.409 0.623-0.191 0.9 0.1 C319.156 360.2 319 360.6 318.8 361.006z"/>
		<path fill="#302B2C" d="M320.268 357.859c-0.286-0.158-0.572-0.317-0.858-0.475c0.21-0.252 0.388-0.67 0.638-0.719 c0.478-0.093 0.6 0.3 0.5 0.714C320.438 357.5 320.4 357.7 320.3 357.859z"/>
		<path fill="#302B2C" d="M319.808 358.898c0.092-0.169 0.184-0.338 0.276-0.507C319.992 358.6 319.9 358.7 319.8 358.898z"/>
		<path fill="#302B2C" d="M319.096 359.192c0.195 0 0.4 0.1 0.6 0.115c-0.128 0.167-0.257 0.334-0.385 0.5 C319.229 359.6 319.2 359.4 319.1 359.192z"/>
		<path fill="#302B2C" d="M329.728 335.964c-0.03 0.066-0.056 0.124-0.082 0.181c-0.082-0.055-0.163-0.111-0.245-0.166 c0.053-0.058 0.106-0.116 0.158-0.173C329.616 335.9 329.7 335.9 329.7 335.964z"/>
		<path fill="#433F40" d="M316.41 366.471c-0.19-0.233-0.38-0.466-0.569-0.7c0.082-0.234 0.165-0.468 0.247-0.701 C316.195 365.5 316.3 366 316.4 366.471z"/>
		<path fill="#302B2C" d="M319.283 357.785c-0.025 0.444-0.051 0.888-0.076 1.333C318.394 358.6 319.1 358.2 319.3 357.785z"/>
	</g>
	<g>
		<polyline fill="#302B2C" points="334.3,322.9 327.9,337.8 328.9,338.2 335.3,323.3"/>
		<polyline fill="#302B2C" points="322.2,353.8 313.9,372.8 312.9,372.4 321,353.4"/>
	</g>
</g>
</svg>
