<svg xmlns="http://www.w3.org/2000/svg" xmlns:xlink="http://www.w3.org/1999/xlink" version="1.1" id="Layer_1" x="0px" y="0px" width="161.579px" height="35.812px" viewBox="0 0 161.579 35.812" enable-background="new 0 0 161.579 35.812" xml:space="preserve">
<path fill="#303843" d="M17.943 0.36c-9.711 0-17.584 7.872-17.584 17.584c0 9.7 7.9 17.6 17.6 17.6 c9.712 0 17.585-7.872 17.585-17.583C35.528 8.2 27.7 0.4 17.9 0.36z M4.156 12.929c2.102-5.775 7.641-9.656 13.781-9.656 c1.708 0 3.4 0.3 5 0.89c0.725 0.3 1.4 0.6 2.1 0.96c-2.02 1.042-3.66 1.948-5.732 3.1 c-1.516 0.838-3.254 1.8-5.537 3.032c-2.949 1.592-3.418 4.436-2.355 6.423c1.096 2 3.9 3.2 7 1.6 c1.488-0.788 2.617-0.338 3 0.414c0.459 0.8 0 1.761-1.176 2.467c-0.076 0.047-7.101 4.467-11.873 6.9 C3.902 25.2 2 18.8 4.2 12.929z M17.935 32.62c-1.707 0-3.393-0.299-5.012-0.889c-0.631-0.231-1.228-0.514-1.807-0.817 c4.695-2.543 10.412-6.136 10.663-6.296c2.981-1.753 3.233-4.532 2.204-6.375c-1.122-2.012-3.869-3.195-6.943-1.568 c-1.543 0.818-2.654 0.399-3.066-0.377c-0.356-0.663-0.262-1.713 1.168-2.485c2.293-1.238 4.042-2.204 5.563-3.046 c2.493-1.378 4.36-2.408 7.02-3.747c1.458 1.3 2.7 2.9 3.5 4.727c1.656 3.6 1.8 7.5 0.5 11.2 C29.619 28.7 24.1 32.6 17.9 32.62z"/>
<g>
	<path fill="#303843" d="M49.335 12.162c0-1.201 0.819-2.225 2.138-2.225c1.201 0 2.2 0.7 3 2.254l2.605-1.727 c-1.083-1.933-2.841-3.456-5.652-3.456c-2.988 0-5.36 2.284-5.36 5.389c0 6.3 8.7 5.4 8.7 9.5 c0 1.816-1.289 3.075-3.135 3.075c-2.342 0-3.543-2.05-4.129-4.335l-2.635 1.67c0.732 3.3 3.2 5.7 6.8 5.7 c3.69 0 6.415-2.488 6.415-6.238C58.122 15.4 49.3 16.2 49.3 12.162z"/>
	<path fill="#303843" d="M69.311 12.749c-1.961 0-3.719 0.996-4.774 2.752v-2.519h-3.045v14.761h3.045v-5.974 c0-4.071 1.875-6.327 3.778-6.327c1.376 0 2.3 0.7 2.3 2.694v9.607h3.046V17.17C73.647 14.3 71.9 12.7 69.3 12.749z"/>
	<path fill="#303843" d="M82.844 12.749c-2.84 0-4.949 1.581-5.563 4.07l2.78 0.586c0.498-1.319 1.554-1.963 2.756-1.963 c1.553 0 2.9 0.7 2.9 2.578v0.645h-2.551c-3.777 0-6.385 1.785-6.385 4.833c0 3.1 2.1 4.5 4.5 4.5 c2.082 0 3.606-0.819 4.573-2.167l0.293 1.933h2.578v-9.166C88.735 14.2 86.3 12.7 82.8 12.749z M85.688 21.5 c0 2.548-1.992 3.747-3.868 3.747c-1.289 0-1.846-0.79-1.846-1.785c0-1.407 1.172-2.285 3.047-2.285h2.667V21.535z"/>
	<path fill="#303843" d="M99.661 12.749c-1.934 0-3.515 1.082-4.013 1.932v-1.699h-3.046v20.736h3.046v-7.615 c0.673 1 2.1 1.9 4 1.874c4.422 0 6.646-3.045 6.646-7.614C106.248 15.6 104 12.7 99.7 12.749z M99.249 25.282c-2.197 0-3.779-1.874-3.779-4.919c0-3.046 1.582-4.921 3.779-4.921c2.197 0 3.8 1.9 3.8 4.9 C103.028 23.4 101.4 25.3 99.2 25.282z"/>
	<polygon fill="#303843" points="122,23.8 119.3,13 116.4,13 113.8,23.8 111,13 107.7,13 112.4,27.7 115.2,27.7 117.9,17.3 120.5,27.7 123.3,27.7 128,13 124.8,13"/>
	<rect x="130.4" y="13" fill="#303843" width="3" height="14.8"/>
	<path fill="#303843" d="M131.941 6.686c-1.201 0-2.108 0.966-2.108 2.138c0 1.2 0.9 2.1 2.1 2.1 c1.2 0 2.108-0.908 2.108-2.079C134.049 7.7 133.1 6.7 131.9 6.686z"/>
	<path fill="#303843" d="M140.464 15.442v-2.46h-3.046v14.761h3.046v-5.477c0-4.656 2.022-6.824 3.983-6.824 c0.617 0 1.3 0.1 1.7 0.44l0.527-2.783c-0.438-0.176-1.083-0.351-1.873-0.351C143.247 12.7 141.5 13.7 140.5 15.442z"/>
	<path fill="#303843" d="M161.319 19.895c0-3.311-2.08-7.146-6.795-7.146c-4.862 0-6.882 4.099-6.882 7.6 c0 3.5 2 7.6 6.9 7.614c3.367 0 5.037-1.375 6.472-4.157l-2.605-1.025c-0.764 1.611-2.285 2.488-3.866 2.5 c-2.402 0-3.662-1.903-3.662-4.07h10.457V19.895z M150.922 18.664c0.319-1.845 1.58-3.222 3.602-3.222 c2.195 0 3.3 1.6 3.6 3.222H150.922z"/>
</g>
</svg>
