<svg xmlns="http://www.w3.org/2000/svg" xmlns:xlink="http://www.w3.org/1999/xlink" version="1.1" id="Layer_1" x="0px" y="0px" width="175px" height="76.042px" viewBox="0 0 175 76.042" enable-background="new 0 0 175 76.042" xml:space="preserve">
<g>
	<g id="_x30_Fo4rf.tif">
		<g>
			<path fill="#181B1C" d="M0.682 2.806c4.211-0.387 8.426-0.055 12.863-0.197c4.859 13.4 9.7 26.7 14.8 40.6 c5.017-13.799 9.86-27.119 14.727-40.502c4.206 0 8.3 0 12.9 0c-6.873 17.764-13.667 35.323-20.46 52.9 c-4.787 0-9.385 0-14.228 0c-1.503-3.851-3.029-7.737-4.537-11.628C11.528 30.7 6.4 17.5 1.3 4.2 c-0.131-0.339-0.078-0.8-0.571-0.916C0.682 3.1 0.7 3 0.7 2.806z"/>
			<path fill="#181B1C" d="M63.099 48.107c0.321-0.493 0.601-0.954 0.911-1.392c1.708-2.416 3.423-4.826 5.221-7.357 c1.14 0.9 2.2 1.8 3.3 2.626c5.345 3.7 11.2 5.4 17.7 4.024c0.85-0.174 1.624-0.511 2.369-0.933 c1.741-0.986 2.9-2.379 2.906-4.468c0.006-2.125-1.472-3.195-3.149-3.961c-3.205-1.465-6.687-2.011-10.078-2.85 c-2.944-0.729-5.866-1.51-8.629-2.801c-4.836-2.261-8.141-5.689-8.659-11.263c-0.582-6.265 1.844-11.091 7.04-14.547 c2.567-1.708 5.438-2.747 8.476-3.104c8.835-1.04 17.1 0.4 24.3 6.083c0.362 0.3 0.7 0.6 1.1 1 c-2.075 2.767-4.13 5.509-6.283 8.38c-3.663-3.189-7.821-4.973-12.481-5.608c-2.187-0.298-4.36-0.343-6.499 0.3 c-1.217 0.357-2.322 0.939-3.105 1.975c-1.518 2.01-1.064 4.6 1.1 5.834c2.311 1.4 4.9 1.9 7.5 2.5 c4.16 1 8.4 1.9 12.2 3.758c4.432 2.1 7.7 5.2 8.5 10.364c1.335 8.22-2.383 15.427-10.288 18 c-11.323 3.694-22.151 2.404-31.845-5.056C64.122 49.2 63.6 48.6 63.1 48.107z"/>
		</g>
	</g>
	<g>
		<circle fill="#9DBD3D" cx="146" cy="29" r="28.3"/>
		<g>
			<g>
				<path fill="#FFFFFF" d="M139.004 35.022c-5.524 0-9.626-4.263-9.626-9.654v-0.054c0-5.335 4.021-9.706 9.786-9.706 c3.539 0 5.7 1.2 7.4 2.895l-2.627 3.03c-1.448-1.314-2.923-2.118-4.8-2.118c-3.164 0-5.443 2.627-5.443 5.846v0.052 c0 3.2 2.2 5.9 5.4 5.9c2.145 0 3.458-0.857 4.933-2.199l2.628 2.655C144.769 33.7 142.6 35 139 35.022z"/>
			</g>
			<g>
				<path fill="#FFFFFF" d="M152.599 42.648c-5.791 0-9.947-4.317-9.947-9.654V32.94c0-5.335 4.21-9.706 10-9.706 c5.792 0 9.9 4.3 9.9 9.654v0.052C162.601 38.3 158.4 42.6 152.6 42.648z M158.284 32.9 c0-3.217-2.36-5.898-5.685-5.898s-5.63 2.627-5.63 5.846v0.052c0 3.2 2.4 5.9 5.7 5.9s5.631-2.627 5.631-5.846V32.94z"/>
			</g>
		</g>
	</g>
	<g>
		<path fill="#231F20" d="M38.443 75.601h-1.277l-2.657-6.618h1.596l1.718 4.628l1.718-4.628H41.1L38.443 75.601z"/>
		<path fill="#231F20" d="M42.999 75.554v-6.571h1.446v6.571H42.999z"/>
		<path fill="#231F20" d="M49.314 75.648c-0.995 0-2-0.347-2.788-1.051l0.854-1.023c0.591 0.5 1.2 0.8 2 0.8 c0.591 0 0.948-0.235 0.948-0.62v-0.019c0-0.366-0.225-0.554-1.324-0.835c-1.324-0.338-2.178-0.704-2.178-2.009v-0.019 c0-1.192 0.958-1.981 2.3-1.981c0.958 0 1.8 0.3 2.4 0.835l-0.751 1.089c-0.582-0.403-1.155-0.648-1.709-0.648 c-0.554 0-0.845 0.253-0.845 0.573v0.018c0 0.4 0.3 0.6 1.4 0.864c1.333 0.3 2.1 0.8 2.1 1.972v0.019 C51.726 74.9 50.7 75.6 49.3 75.648z"/>
		<path fill="#231F20" d="M56.629 75.657c-1.765 0-2.844-0.986-2.844-2.919v-3.755h1.446V72.7c0 1.1 0.5 1.6 1.4 1.6 c0.882 0 1.417-0.535 1.417-1.577v-3.764h1.446v3.708C59.511 74.7 58.4 75.7 56.6 75.657z"/>
		<path fill="#231F20" d="M66.453 75.554l-0.601-1.474h-2.779l-0.601 1.474h-1.474l2.816-6.618h1.333l2.816 6.618H66.453z M64.462 70.672l-0.873 2.131h1.746L64.462 70.672z"/>
		<path fill="#231F20" d="M69.831 75.554v-6.571h1.446v5.257h3.276v1.314H69.831z"/>
		<path fill="#231F20" d="M82.578 75.648c-0.995 0-2-0.347-2.788-1.051l0.854-1.023c0.591 0.5 1.2 0.8 2 0.8 c0.592 0 0.948-0.235 0.948-0.62v-0.019c0-0.366-0.225-0.554-1.324-0.835c-1.324-0.338-2.178-0.704-2.178-2.009v-0.019 c0-1.192 0.958-1.981 2.3-1.981c0.958 0 1.8 0.3 2.4 0.835l-0.751 1.089c-0.582-0.403-1.155-0.648-1.709-0.648 c-0.554 0-0.845 0.253-0.845 0.573v0.018c0 0.4 0.3 0.6 1.4 0.864c1.333 0.3 2.1 0.8 2.1 1.972v0.019 C84.99 74.9 84 75.6 82.6 75.648z"/>
		<path fill="#231F20" d="M89.893 75.657c-1.765 0-2.845-0.986-2.845-2.919v-3.755h1.446V72.7c0 1.1 0.5 1.6 1.4 1.6 c0.883 0 1.417-0.535 1.417-1.577v-3.764h1.446v3.708C92.775 74.7 91.7 75.7 89.9 75.657z"/>
		<path fill="#231F20" d="M97.784 73.582h-1.099v1.972h-1.445v-6.571h2.685c1.568 0 2.5 0.9 2.5 2.272v0.019 C100.441 72.8 99.3 73.6 97.8 73.582z M98.976 71.283c0-0.648-0.451-0.995-1.173-0.995h-1.117v2.009h1.145 c0.723 0 1.145-0.432 1.145-0.995V71.283z"/>
		<path fill="#231F20" d="M104.954 73.582h-1.099v1.972h-1.445v-6.571h2.685c1.568 0 2.5 0.9 2.5 2.272v0.019 C107.611 72.8 106.4 73.6 105 73.582z M106.146 71.283c0-0.648-0.451-0.995-1.173-0.995h-1.117v2.009h1.145 c0.723 0 1.145-0.432 1.145-0.995V71.283z"/>
		<path fill="#231F20" d="M109.58 75.554v-6.571h1.445v5.257h3.276v1.314H109.58z"/>
		<path fill="#231F20" d="M118.555 72.935v2.619h-1.446v-2.591l-2.525-3.98h1.69l1.568 2.638l1.596-2.638h1.643L118.555 72.935z"/>
		<path fill="#231F20" d="M129.659 75.667c-1.934 0-3.37-1.493-3.37-3.38v-0.019c0-1.868 1.408-3.398 3.426-3.398 c1.239 0 2 0.4 2.6 1.014l-0.92 1.061c-0.507-0.46-1.023-0.742-1.681-0.742c-1.108 0-1.906 0.92-1.906 2.047v0.018 c0 1.1 0.8 2.1 1.9 2.066c0.751 0 1.211-0.3 1.727-0.77l0.92 0.929C131.677 75.2 130.9 75.7 129.7 75.667z"/>
		<path fill="#231F20" d="M137.336 75.667c-2.027 0-3.483-1.511-3.483-3.38v-0.019c0-1.868 1.474-3.398 3.501-3.398 c2.028 0 3.5 1.5 3.5 3.38v0.018C140.838 74.1 139.4 75.7 137.3 75.667z M139.327 72.3 c0-1.126-0.826-2.065-1.99-2.065c-1.164 0-1.971 0.92-1.971 2.047v0.018c0 1.1 0.8 2.1 2 2.1 c1.164 0 1.972-0.92 1.972-2.047V72.268z"/>
	</g>
</g>
</svg>
