<svg xmlns="http://www.w3.org/2000/svg" xmlns:xlink="http://www.w3.org/1999/xlink" version="1.1" id="Layer_1" x="0px" y="0px" width="180px" height="180px" viewBox="0 0 180 180" enable-background="new 0 0 180 180" xml:space="preserve">
<g>
	<path d="M0 180C0 120 0 60 0 0c60 0 120 0 180 0c0 60 0 120 0 180C120 180 60 180 0 180z M5.011 5 c0 56.8 0 113.4 0 169.991c56.715 0 113.3 0 169.9 0c0-56.71 0-113.338 0-169.991C118.275 5 61.7 5 5 4.967z"/>
	<path d="M56.022 66.335c0.073-3.889 0.575-8.638 2.586-13.106c2.813-6.25 7.736-9.76 14.395-10.908 c3.789-0.654 7.595-0.606 11.4 0.192c7.019 1.5 11.7 5.7 14.1 12.379c1.832 5.1 2.1 10.4 1.8 15.7 c-0.21 3.39-0.784 6.715-2.049 9.888c-2.693 6.754-7.689 10.656-14.813 11.871c-4.158 0.709-8.301 0.629-12.403-0.434 c-6.637-1.72-10.925-5.953-13.161-12.351C56.579 75.9 56 72 56 66.335z M93.075 67.2 c0.058-2.667-0.232-5.558-0.985-8.386c-0.922-3.46-2.479-6.55-5.498-8.682c-3.31-2.338-7.041-2.753-10.935-2.246 c-3.561 0.464-6.47 2.097-8.617 5.015c-1.155 1.57-1.99 3.309-2.494 5.178c-1.672 6.21-1.68 12.4 0 18.6 c0.714 2.6 2 5 4 6.844c3.559 3.3 7.9 3.9 12.4 3.255c5.208-0.756 8.541-3.897 10.38-8.708 C92.691 74.7 93.1 71.1 93.1 67.176z"/>
	<path d="M157.531 68.14c-0.156 3.768-0.506 7.359-1.638 10.835c-2.392 7.345-7.324 11.867-14.93 13.3 c-4.259 0.814-8.532 0.73-12.758-0.346c-6.594-1.678-10.903-5.849-13.171-12.186c-1.808-5.052-2.104-10.296-1.788-15.596 c0.207-3.471 0.797-6.876 2.116-10.113c2.802-6.876 7.975-10.712 15.261-11.798c4.01-0.598 7.997-0.516 11.9 0.5 c6.581 1.7 10.8 5.9 13.1 12.268C157.186 59.3 157.5 63.8 157.5 68.14z M150.203 68 c0.005-3.64-0.282-6.293-0.912-8.905c-0.454-1.882-1.132-3.683-2.164-5.328c-2.584-4.119-6.42-5.951-11.182-6.126 c-6.782-0.249-11.549 2.904-13.912 9.261c-0.827 2.226-1.238 4.543-1.425 6.902c-0.345 4.344-0.196 8.7 1.1 12.9 c1.152 3.8 3.2 7 6.9 8.867c2.525 1.3 5.2 1.6 8 1.402c5.462-0.354 9.303-3.022 11.536-8.011 C149.821 75.2 150.2 71.2 150.2 68.038z"/>
	<path d="M35.8 50.83c-5.702 4.358-10.984 7.238-14.181 7.758c0-2.074 0-4.138 0-6.361c5.366-2.161 10.494-4.926 14.718-8.938 c2.279 0 4.4 0 6.6 0c0 16 0 32 0 48.068c-2.34 0-4.676 0-7.175 0C35.8 77.9 35.8 64.5 35.8 50.83z"/>
	<path d="M157.753 105.431c0 0.4 0 0.7 0 1.058c-45.619 0-91.21 0-136.878 0c-0.026-0.156-0.069-0.337-0.081-0.519 c-0.01-0.153 0.017-0.309 0.034-0.539C66.436 105.4 112 105.4 157.8 105.431z"/>
	<path d="M79.189 120.78c-1.87 3.248-3.741 6.496-5.646 9.804c-0.282 0.021-0.577 0.043-0.904 0.1 c-1.939-3.37-3.855-6.697-5.903-10.256c0 4.9 0 9.6 0 14.415c-0.378 0.024-0.785 0.05-1.308 0.084c0-5.701 0-11.336 0-17.056 c0.386 0 0.8 0 1.3 0c2.049 3.5 4.1 7.2 6.3 10.892c2.125-3.671 4.216-7.284 6.317-10.913c0.459 0 0.9 0 1.3 0 c0 5.7 0 11.3 0 16.979c-0.411 0-0.816 0-1.326 0c0-4.649 0-9.3 0-13.952C79.332 120.8 79.3 120.8 79.2 120.78z"/>
	<path d="M114.554 128.341c-1.571 0-2.978 0-4.513 0c0 2.2 0 4.3 0 6.457c-0.569 0-1.01 0-1.516 0c0-5.643 0-11.256 0-16.933 c0.261-0.04 0.525-0.116 0.787-0.113c1.808 0 3.625-0.041 5.4 0.116c3.615 0.3 5.6 3.1 4.8 6.6 c-0.309 1.343-1.152 2.301-2.337 2.967c-0.305 0.171-0.634 0.3-1.127 0.529c0.71 1.2 1.4 2.3 2.1 3.4 c0.67 1.1 1.3 2.2 2.1 3.413c-0.638 0-1.128 0-1.669 0C117.205 132.7 115.9 130.5 114.6 128.341z M110.052 127 c1.804 0.1 3.5 0.2 5.211-0.244c1.833-0.456 2.882-1.849 2.884-3.661c0.002-1.901-0.957-3.233-2.805-3.703 c-1.721-0.438-3.482-0.335-5.289-0.245C110.052 121.8 110.1 124.4 110.1 127.001z"/>
	<path d="M159.422 121.942c-0.607 0.171-1.01 0.284-1.308 0.367c-0.481-0.804-0.812-1.63-1.375-2.242 c-1.462-1.589-4.812-1.78-6.542-0.474c-1.697 1.282-1.634 3.5 0.3 4.413c1.279 0.6 2.7 0.9 4.1 1.4 c1.026 0.4 2.1 0.7 3 1.278c2.365 1.5 2.7 4.5 0.9 6.627c-2.315 2.611-8.666 2.777-10.681-1.098 c-0.315-0.606-0.483-1.29-0.754-2.033c0.562-0.149 0.962-0.256 1.403-0.373c0.103 0.3 0.2 0.6 0.3 0.9 c0.488 1.4 1.5 2.4 2.9 2.869c1.398 0.5 2.8 0.4 4.155-0.1c1.365-0.515 2.227-1.465 2.31-2.969 c0.082-1.49-0.708-2.484-2.023-3.002c-1.346-0.53-2.754-0.903-4.123-1.376c-0.814-0.281-1.654-0.539-2.399-0.956 c-2.357-1.316-2.751-4.156-0.866-6.083c2.226-2.277 7.595-2.555 9.8 0.783C158.869 120.5 159.1 121.2 159.4 121.942z"/>
	<path d="M37.418 121.925c-0.52 0.131-0.928 0.233-1.312 0.329c-3.478-4.029-8.433-4.589-11.677-1.358 c-2.969 2.956-2.78 8.4 0.3 11.12c2.761 2.4 8.5 2.9 11.587-2.143c0.404 0.1 0.8 0.2 1.3 0.3 c-1.172 3.429-5.169 5.467-9.525 4.904c-3.887-0.502-7.043-3.998-7.309-8.098c-0.286-4.415 2.321-8.209 6.405-9.299 C32.022 116.4 36.1 119.1 37.4 121.925z"/>
	<path d="M142.299 134.827c-0.605 0-1.065 0-1.616 0c-0.695-1.58-1.403-3.189-2.134-4.849c-2.974 0-5.954 0-8.989 0 c-0.708 1.607-1.417 3.215-2.139 4.854c-0.491 0-0.953 0-1.61 0c2.543-5.729 5.046-11.368 7.556-17.022c0.463 0 0.8 0 1.4 0 C137.228 123.4 139.7 129.1 142.3 134.827z M137.9 128.56c-1.312-3.037-2.554-5.912-3.845-8.9 c-1.295 2.998-2.544 5.889-3.845 8.9C132.829 128.6 135.3 128.6 137.9 128.56z"/>
	<path d="M43.831 134.841c-0.51 0-0.974 0-1.61 0c2.543-5.726 5.049-11.368 7.565-17.033c0.454 0 0.8 0 1.4 0 c2.494 5.6 5 11.3 7.6 17.016c-0.621 0-1.077 0-1.605 0c-0.71-1.606-1.422-3.215-2.146-4.85c-2.996 0-5.973 0-8.981 0 C45.257 131.6 44.5 133.2 43.8 134.841z M50.462 119.658c-1.317 3.059-2.549 5.921-3.823 8.88c2.646 0 5.1 0 7.7 0 C53.018 125.5 51.8 122.7 50.5 119.658z"/>
	<path d="M100.576 117.828c0 0.5 0 0.8 0 1.269c-3.217 0-6.384 0-9.609 0c0 2 0 3.9 0 5.876c2.573 0 5.1 0 7.7 0 c0 0.5 0 0.9 0 1.377c-2.541 0-5.081 0-7.694 0c0 2.4 0 4.7 0 7.11c3.207 0 6.4 0 9.7 0 c0.026 0.5 0 0.9 0.1 1.356c-3.789 0-7.465 0-11.198 0c0-5.681 0-11.294 0-16.988 C93.217 117.8 96.9 117.8 100.6 117.828z"/>
</g>
</svg>
