<svg xmlns="http://www.w3.org/2000/svg" xmlns:xlink="http://www.w3.org/1999/xlink" version="1.1" id="Layer_1" x="0px" y="0px" width="534.95px" height="230.542px" viewBox="0 0 534.95 230.542" enable-background="new 0 0 534.95 230.542" xml:space="preserve">
<g>
	<g>
		<path d="M63.092 118.304C63.806 92.3 73.8 72.3 95.7 59.068c13.645-8.234 28.628-10.879 44.426-9.177 c13.965 1.5 26.5 6.5 37.2 15.624c13.195 11.2 20.6 25.6 22.8 42.679c2.115 17.203-0.88 33.391-10.594 47.9 c-10.718 16.037-25.951 25.368-44.85 28.631c-17.859 3.083-34.817 0.308-50.276-9.327c-17.293-10.777-27.224-26.575-30.308-46.665 C63.492 125 63.4 121.3 63.1 118.304z M127.435 62.123c-14.356 0.321-29.67 7.614-40.35 23.5 c-6.311 9.409-9.068 19.963-9.161 31.253c-0.121 14.6 4 27.8 13.8 38.834c11.618 12.9 26.5 18.5 43.6 17.3 c20.961-1.404 36.425-11.618 45.442-30.789c4.849-10.309 6.048-21.281 4.653-32.581C182.046 81.6 160.2 62.2 127.4 62.1 z"/>
		<path d="M241.104 185.836c-4.651 0-8.807 0-13.136 0c0-45.422 0-90.702 0-136.038c1.928-1.093 2.9 0.2 4 1.5 c14.704 17.4 29.4 34.7 44.1 52.095c10.757 12.7 21.5 25.4 32.2 38.094c3.016 3.6 5.8 7.4 8.6 11.1 c0.599 0.8 1.2 1.5 2.2 2.822c-0.172-2.969-0.319-5.276-0.436-7.584c-0.15-2.954-0.393-5.909-0.396-8.864 c-0.03-28.685-0.018-57.37-0.018-86.055c0-1.008 0-2.016 0-3.234c4.41 0 8.6 0 13 0c0 45.4 0 90.6 0 136 c-1.651 1.036-2.34-0.351-3.15-1.305c-5.554-6.532-11.092-13.077-16.634-19.618c-20.124-23.751-40.268-47.486-60.352-71.271 c-3.091-3.661-5.906-7.554-8.85-11.339c-0.601-0.774-1.206-1.545-2.247-2.878c0.194 2.7 0.4 4.7 0.5 6.7 c0.17 2.9 0.4 5.7 0.4 8.553c0.033 29.3 0 58.6 0 87.892C241.104 183.4 241.1 184.5 241.1 185.836z"/>
		<path d="M455.484 185.817c-3.207-7.927-6.373-15.752-9.578-23.674c-22.655 0-45.174 0-67.911 0 c-3.153 7.916-6.31 15.84-9.464 23.758c-4.582 0-8.957 0-13.867 0c18.746-45.6 37.39-90.955 56.05-136.347 c0.848 0 1.5 0 2.4 0c19.05 45.3 38.1 90.6 57.3 136.264C465.311 185.8 460.6 185.8 455.5 185.817z M383.155 149.635c19.335 0 38.2 0 57.4 0c-9.276-24.996-20.286-49-28.623-74.357 C403.318 100.7 392.5 124.7 383.2 149.635z"/>
		<path d="M117.155 230.542c-39.019 0-77.974 0-117.155 0C0 153.8 0 77 0 0c38.975 0 77.9 0 117.1 0 c0 2.4 0 4.9 0 7.685c-36.395 0-72.775 0-109.311 0c0 71.8 0 143.2 0 214.945c36.335 0 72.7 0 109.3 0 C117.155 225.4 117.2 227.9 117.2 230.542z"/>
		<path d="M527.011 7.679c-36.51 0-72.819 0-109.331 0c0-2.615 0-5.016 0-7.636c39.015 0 78.1 0 117.3 0 c0 76.7 0 153.5 0 230.426c-38.981 0-78.011 0-117.474 0c0-1.154 0-2.339 0-3.524c0-1.221 0-2.442 0-3.995 c36.535 0 72.9 0 109.5 0C527.011 151.1 527 79.6 527 7.679z"/>
	</g>
</g>
</svg>
