<svg xmlns="http://www.w3.org/2000/svg" xmlns:xlink="http://www.w3.org/1999/xlink" version="1.1" id="Layer_1" x="0px" y="0px" width="190px" height="62.896px" viewBox="0 0 190 62.896" enable-background="new 0 0 190 62.896" xml:space="preserve">
<g>
	<g>
		<path fill="#FFC807" d="M63.122 31.449c0-8.623-3.495-16.431-9.147-22.082L41.979 21.358c2.579 2.6 4.2 6.1 4.2 10.1 c0 3.939-1.597 7.505-4.178 10.086l12 12C59.628 47.9 63.1 40.1 63.1 31.449z"/>
		<g>
			<path d="M41.976 41.529L41.976 41.529c-2.581 2.583-6.148 4.179-10.087 4.179c-7.879 0-14.266-6.386-14.266-14.264 s6.387-14.265 14.266-14.265c3.941 0 7.5 1.6 10.1 4.181c0 0 0 0 0 0.003L53.976 9.4 c-5.651-5.651-13.458-9.147-22.081-9.147c-17.247 0-31.228 13.981-31.228 31.228c0 17.2 14 31.2 31.2 31.2 c8.622 0 16.43-3.495 22.081-9.147L41.976 41.529L41.976 41.529z"/>
		</g>
	</g>
	<path d="M79.848 28.475h0.015l0.006 0.001l0.005-0.001c3.067-0.003 6.008-1.907 7.126-4.769c0.043-0.109 0.029-0.233-0.037-0.331 c-0.067-0.099-0.177-0.156-0.296-0.156h-3.286c-0.117 0-0.228 0.057-0.294 0.155c-0.686 1.002-1.872 1.65-3.113 1.6 c0.001 0-0.003 0-0.003 0c-1.285-0.001-2.394-0.46-3.178-1.241c-0.781-0.778-1.246-1.877-1.252-3.167 c0.001-0.008 0.001-0.017 0.001-0.026c0-1.221 0.432-2.303 1.177-3.08c0.743-0.771 1.796-1.242 3.045-1.249 c0.013 0 0 0 0 0.001c0.013-0.001 0.022-0.001 0.026-0.001c1.42 0 2.5 0.6 3.3 1.7 c0.065 0.1 0.2 0.2 0.3 0.165h3.295c0.116 0 0.226-0.056 0.293-0.151c0.067-0.095 0.083-0.218 0.044-0.326 c-1.055-2.923-4.095-4.879-7.167-4.885h-0.01c-4.274 0-7.823 3.424-7.832 7.725c-0.001 2.2 0.8 4.2 2.4 5.7 C75.83 27.6 77.9 28.5 79.8 28.475z M88.184 20.671c0.01 4.3 3.5 7.8 7.8 7.805c4.327 0 7.86-3.45 7.86-7.805 c0-4.274-3.373-7.85-7.699-7.859c-4.407 0-7.939 3.451-7.938 7.9 M91.715 20.661c0.001-1.162 0.4-2.223 1.219-3.04 c0.003-0.003 0.006-0.006 0.009-0.009c0.748-0.795 1.93-1.346 3.021-1.347c2.44 0 4.3 2 4.3 4.4 c-0.012 2.465-1.834 4.343-4.327 4.354c-2.414 0-4.24-1.991-4.247-4.355 M105.353 27.998h2.816c0.095 0 0.185-0.037 0.252-0.104 c0.068-0.068 0.105-0.158 0.105-0.253V8.737c0-0.095-0.037-0.186-0.105-0.253c-0.066-0.066-0.158-0.104-0.252-0.104h-2.816 c-0.096 0-0.187 0.038-0.253 0.104c-0.066 0.067-0.105 0.158-0.105 0.253V27.64c0 0.1 0 0.2 0.1 0.3 C105.167 28 105.3 28 105.4 27.998z M110.477 27.998h2.815c0.095 0 0.185-0.037 0.253-0.104 c0.068-0.068 0.104-0.158 0.104-0.253V8.737c0-0.095-0.037-0.186-0.104-0.253c-0.066-0.066-0.159-0.104-0.253-0.104h-2.815 c-0.094 0-0.187 0.038-0.253 0.104c-0.066 0.067-0.103 0.158-0.103 0.253V27.64c0 0.1 0 0.2 0.1 0.3 C110.291 28 110.4 28 110.5 27.998z M115.035 20.752c0.008 4.3 3.5 7.7 7.8 7.7 c0.023 0 0.024-0.001 0.024-0.001c2.901-0.01 5.735-1.84 6.837-4.218c0.051-0.11 0.042-0.239-0.024-0.342 c-0.065-0.103-0.179-0.165-0.301-0.165H126.1c-0.094 0-0.186 0.038-0.252 0.104c-0.713 0.714-1.925 1.168-3.195 1.2 c0.001 0-0.001 0-0.001 0c-1.778-0.002-3.344-1.118-3.874-2.814h11.107c0.177 0 0.328-0.129 0.354-0.304 c0.066-0.439 0.135-0.875 0.14-1.314c0-0.006 0-0.013 0-0.018c0-0.01 0-0.02 0-0.03c0-0.001 0-0.001 0-0.002 c0-0.001 0-0.003 0-0.005c-0.01-4.114-3.345-7.71-7.538-7.725c-4.408 0-7.806 3.584-7.806 7.9 M122.815 16.264l0.01-0.001 c1.798 0 3.4 1.1 4 2.815h-8.095C119.259 17.4 121.1 16.3 122.8 16.264z M136.204 17.5 c0.74-0.771 1.795-1.242 3.043-1.249c0.013 0 0 0 0 0.001c0.013-0.001 0.023-0.001 0.027-0.001 c1.421 0 2.5 0.6 3.3 1.748c0.066 0.1 0.2 0.2 0.3 0.165h3.294c0.116 0 0.226-0.056 0.292-0.151 c0.067-0.095 0.083-0.218 0.044-0.326c-1.055-2.923-4.094-4.879-7.167-4.885h-0.01c-4.275 0-7.823 3.424-7.831 7.7 c0 2.2 0.8 4.2 2.4 5.738c1.427 1.4 3.5 2.2 5.4 2.2h0.015l0.006 0.001l0.007-0.001 c3.067-0.003 6.008-1.907 7.124-4.769c0.043-0.109 0.031-0.233-0.037-0.331c-0.066-0.099-0.177-0.156-0.295-0.156h-3.285 c-0.117 0-0.229 0.057-0.296 0.155c-0.686 1.002-1.872 1.65-3.111 1.65h-0.004c-1.285-0.001-2.394-0.46-3.178-1.241 c-0.785-0.782-1.252-1.89-1.252-3.188v-0.004C135.027 19.4 135.5 18.3 136.2 17.512z M154.277 13.29h-1.767V8.737 c0-0.095-0.037-0.186-0.104-0.253c-0.066-0.066-0.16-0.104-0.253-0.104h-2.815c-0.094 0-0.187 0.038-0.253 0.1 c-0.066 0.067-0.104 0.158-0.104 0.253v4.554h-1.368c-0.096 0-0.187 0.038-0.253 0.104c-0.067 0.068-0.105 0.16-0.105 0.253v2.419 c0 0.1 0 0.2 0.1 0.252c0.067 0.1 0.2 0.1 0.3 0.105h1.368V27.64c0 0.1 0 0.2 0.1 0.3 c0.068 0.1 0.2 0.1 0.3 0.104h2.815c0.095 0 0.186-0.037 0.253-0.104c0.067-0.068 0.104-0.158 0.104-0.253V16.424h1.767 c0.095 0 0.185-0.037 0.253-0.105c0.067-0.067 0.103-0.157 0.103-0.252v-2.419c0-0.094-0.037-0.186-0.103-0.252 C154.463 13.3 154.4 13.3 154.3 13.29z M159.056 13.29h-2.816c-0.197 0-0.358 0.16-0.358 0.357l-0.001 14 c0 0.1 0 0.2 0.1 0.253c0.067 0.1 0.2 0.1 0.3 0.104h2.817c0.095 0 0.185-0.037 0.252-0.104 c0.068-0.068 0.105-0.158 0.105-0.253V13.647c0-0.094-0.039-0.186-0.105-0.252C159.241 13.3 159.2 13.3 159.1 13.29z M159.056 8.379h-2.816c-0.095 0-0.186 0.038-0.252 0.104c-0.068 0.067-0.105 0.158-0.105 0.253v2.498 c0 0.1 0 0.2 0.1 0.253c0.067 0.1 0.2 0.1 0.3 0.104h2.816c0.095 0 0.185-0.036 0.252-0.104 c0.068-0.068 0.105-0.158 0.105-0.253V8.737c0-0.095-0.039-0.186-0.105-0.253C159.241 8.4 159.2 8.4 159.1 8.379z M174.44 13.29h-3.145c-0.152 0-0.289 0.097-0.338 0.24l-3.287 9.426l-3.34-9.428c-0.051-0.143-0.186-0.238-0.337-0.238h-3.147 c-0.118 0-0.23 0.06-0.297 0.158c-0.066 0.098-0.08 0.224-0.035 0.334l5.658 13.992c0.055 0.1 0.2 0.2 0.3 0.223h2.278 c0.146 0 0.277-0.088 0.332-0.223l5.657-13.992c0.044-0.11 0.032-0.237-0.034-0.334C174.67 13.3 174.6 13.3 174.4 13.29z M173.99 20.752c0.007 4.3 3.5 7.7 7.8 7.724c0.023 0 0.023-0.001 0.023-0.001c2.901-0.01 5.736-1.84 6.838-4.218 c0.049-0.11 0.04-0.239-0.025-0.342c-0.066-0.103-0.179-0.165-0.301-0.165h-3.224c-0.094 0-0.185 0.038-0.252 0.1 c-0.712 0.714-1.925 1.168-3.195 1.17c0.002 0-0.001 0-0.001 0c-1.776-0.002-3.344-1.118-3.873-2.814h11.107 c0.177 0 0.327-0.129 0.354-0.304c0.069-0.453 0.139-0.907 0.139-1.362v-0.013c-0.013-4.111-3.346-7.703-7.537-7.718 c-4.408 0-7.806 3.584-7.806 7.9 M177.68 19.078c0.533-1.701 2.333-2.813 4.089-2.814l0.01-0.001 c1.795 0 3.4 1.1 4 2.806c0.001 0 0 0 0 0.009H177.68z M87.507 35.153l-2.523-0.001 c-0.095 0-0.187 0.038-0.254 0.104c-0.067 0.067-0.104 0.159-0.104 0.254v1.384l-0.141 0.036c-0.962-1.534-2.687-2.254-4.503-2.254 c-2.205 0-4.196 0.982-5.573 2.491c-1.222 1.382-1.965 3.183-1.968 5.118v0.014c0.001 2.1 0.7 4.2 2.2 5.7 c1.271 1.3 3.4 2.3 5.2 2.308h0.009v0l0.011 0c2.014 0 3.531-1.011 4.751-2.521c-0.211 1.35-0.347 2.364-1.404 3.3 c-0.855 0.8-2.124 1.224-3.296 1.224c-1.098-0.002-2.381-0.51-3.191-1.305c-0.067-0.066-0.157-0.102-0.249-0.102h-3.326 c-0.121 0-0.235 0.063-0.301 0.165c-0.065 0.103-0.074 0.233-0.023 0.343c1.239 2.7 4.1 4.3 7.1 4.3 c0.011 0 0 0 0 0.001l0.002 0.001h0.002c2.204-0.001 4.324-0.958 5.836-2.52c1.594-1.67 2.075-3.403 2.074-5.682 v-12.12c0-0.095-0.038-0.187-0.105-0.254C87.693 35.2 87.6 35.2 87.5 35.153z M80.403 46.887h-0.002 c-1.273-0.001-2.382-0.479-3.168-1.274c-0.789-0.794-1.26-1.907-1.261-3.178c0-0.005 0-0.011 0-0.017v-0.017 c0.003-1.154 0.352-2.135 1.167-2.973c0.77-0.797 1.858-1.302 3-1.302c2.495 0 4.4 1.9 4.4 4.4 C84.544 44.8 82.7 46.9 80.4 46.887z M89.144 42.534c0.011 4.3 3.5 7.8 7.8 7.805c4.326 0 7.859-3.451 7.859-7.805 c-0.001-4.275-3.373-7.848-7.699-7.858C92.676 34.7 89.1 38.1 89.1 42.5 M92.675 42.524c0-0.001 0.001-0.002 0-0.014 c0.005-1.157 0.405-2.214 1.221-3.028c0.003-0.003 0.005-0.005 0.008-0.008c0.747-0.795 1.931-1.346 3.022-1.348 c2.44 0 4.3 2 4.3 4.408c-0.013 2.467-1.833 4.342-4.328 4.354c-2.415 0.001-4.24-1.991-4.247-4.355 M106.032 42.5 c0.011 4.3 3.5 7.8 7.8 7.805c4.328 0 7.859-3.451 7.859-7.805c0-4.275-3.373-7.848-7.698-7.858 C109.564 34.7 106 38.1 106 42.5 M109.564 42.524c0.001-1.158 0.398-2.218 1.213-3.035 c0.756-0.807 1.942-1.362 3.037-1.363c2.44 0 4.3 2 4.3 4.408c-0.012 2.467-1.833 4.342-4.326 4.4 c-2.414 0.001-4.241-1.991-4.248-4.355 M138.04 30.242h-2.815c-0.095 0-0.185 0.037-0.252 0.1 c-0.067 0.067-0.105 0.159-0.105 0.253v6.067c-1.114-1.3-2.836-1.991-4.533-1.992h-0.003c-0.006 0-0.016 0-0.028 0 c-2.011 0.008-4.066 1.014-5.39 2.495l0.001 0.001c-1.328 1.486-1.992 3.424-1.992 5.389c0 2 0.7 3.9 2 5.3 c1.3 1.5 3.2 2.5 5.3 2.47l0.003-0.001c1.91-0.001 3.845-0.849 4.934-2.469l0.001 1.634c0 0.1 0 0.2 0.1 0.3 c0.068 0.1 0.2 0.1 0.3 0.104h2.522c0.096 0 0.186-0.036 0.253-0.104c0.068-0.068 0.104-0.158 0.104-0.253V30.6 c0-0.095-0.037-0.187-0.104-0.253C138.227 30.3 138.1 30.2 138 30.242z M130.754 46.9 c-2.469-0.004-4.291-2.044-4.301-4.487c0.002-2.259 1.987-4.271 4.25-4.274c2.415 0 4.4 1.9 4.4 4.4 C135.102 44.9 133.2 46.9 130.8 46.888z"/>
	<g>
		<path fill="#FFC807" d="M145.502 46.387h-3.024c-0.066 0-0.132 0.028-0.178 0.074c-0.046 0.048-0.074 0.112-0.074 0.179v3.024 c0 0.1 0 0.1 0.1 0.177c0.047 0 0.1 0.1 0.2 0.075h3.024c0.066 0 0.131-0.028 0.178-0.075 c0.046-0.047 0.074-0.111 0.074-0.177V46.64c0-0.067-0.028-0.131-0.074-0.178C145.632 46.4 145.6 46.4 145.5 46.387z M171.849 34.743h-0.012c-1.453-0.002-2.392 0.561-3.156 1.802c-0.001 0.001-0.001 0.002-0.001 0.002h-0.053l-0.001-1.074 c0-0.139-0.113-0.253-0.252-0.253h-2.705c-0.066 0-0.131 0.027-0.178 0.074c-0.047 0.047-0.074 0.112-0.074 0.179v14.19 c0 0.1 0 0.1 0.1 0.177c0.048 0 0.1 0.1 0.2 0.075h3.023c0.067 0 0.131-0.028 0.178-0.075 c0.048-0.048 0.074-0.11 0.074-0.177v-7.672c-0.004-0.155-0.005-0.301-0.006-0.445v-0.049c0.004-1.02 0.142-1.933 1.019-2.647 c0.518-0.399 1.246-0.632 1.909-0.677c0.132-0.009 0.235-0.12 0.235-0.252l-0.001-2.926 C172.1 34.9 172 34.7 171.8 34.743z"/>
		<path fill="#FFC807" d="M187.384 35.22l-2.523-0.001c-0.095 0-0.187 0.038-0.254 0.104c-0.067 0.067-0.105 0.16-0.105 0.254v1.384 l-0.141 0.035c-0.963-1.533-2.687-2.254-4.504-2.254c-2.205 0-4.196 0.982-5.573 2.49c-1.222 1.383-1.965 3.183-1.968 5.119v0.014 c0.001 2.1 0.7 4.2 2.2 5.731c1.271 1.3 3.4 2.3 5.2 2.308h0.009l0 0h0.011c2.014 0 3.532-1.01 4.751-2.521 c-0.211 1.35-0.347 2.364-1.404 3.342c-0.854 0.8-2.124 1.223-3.296 1.223c-1.097-0.001-2.381-0.509-3.191-1.305 c-0.067-0.065-0.157-0.102-0.249-0.102h-3.326c-0.122 0-0.235 0.063-0.301 0.166c-0.066 0.103-0.074 0.233-0.023 0.3 c1.239 2.7 4.1 4.3 7.1 4.35c0.011 0 0 0 0 0.001h0.002h0.002c2.204-0.001 4.324-0.957 5.836-2.52 c1.594-1.67 2.075-3.402 2.074-5.681V35.579c0-0.095-0.038-0.187-0.105-0.253C187.57 35.3 187.5 35.2 187.4 35.22z M180.28 46.954c-0.001 0-0.002 0-0.002 0c-1.273-0.001-2.382-0.479-3.168-1.274c-0.788-0.794-1.26-1.907-1.261-3.177 c0.001-0.006 0.001-0.011 0-0.017v-0.017c0.004-1.154 0.352-2.135 1.167-2.973c0.77-0.796 1.858-1.302 3-1.302 c2.495 0 4.4 1.9 4.4 4.436C184.421 44.9 182.6 47 180.3 46.954z"/>
		<path fill="#FFC807" d="M148.48 42.6c0.011 4.3 3.5 7.8 7.8 7.805c4.326 0 7.859-3.451 7.859-7.805 c-0.001-4.275-3.373-7.848-7.699-7.858C152.012 34.7 148.5 38.2 148.5 42.6 M152.011 42.59c0-0.001 0.001-0.002 0-0.014 c0.005-1.157 0.405-2.214 1.221-3.028c0.003-0.003 0.005-0.005 0.008-0.008c0.747-0.795 1.931-1.346 3.022-1.348 c2.44 0 4.3 2 4.3 4.408c-0.013 2.467-1.833 4.342-4.328 4.354c-2.415 0.001-4.24-1.991-4.247-4.355"/>
	</g>
</g>
</svg>
