<svg xmlns="http://www.w3.org/2000/svg" xmlns:xlink="http://www.w3.org/1999/xlink" version="1.1" id="Layer_1" x="0px" y="0px" width="52.75px" height="15.188px" viewBox="0 0 52.75 15.188" enable-background="new 0 0 52.75 15.188" xml:space="preserve">
<g>
	<path fill="#252E2F" d="M7.981 3.873c0 1.972-1.711 3.57-3.822 3.57c-2.111 0-3.822-1.599-3.822-3.57 c0-1.973 1.711-3.571 3.822-3.571C6.27 0.3 8 1.9 8 3.9"/>
	<path fill="#FFFFFF" d="M4.219 1.627H4.206c-1.365 0-2.473 0.735-2.473 2.242c0 1.5 1.1 2.2 2.5 2.2 c0.505 0 0.903-0.156 1.079-0.273C5.392 5.8 5.4 5.7 5.5 5.672c0.015-0.029 0.024-0.061 0.024-0.096 c0-0.111-0.09-0.201-0.201-0.201L5.12 5.375c-0.588 0-0.697-0.455-0.697-0.455h1.523c0.432 0 0.544-0.193 0.622-0.337 C6.65 4.4 6.7 4.1 6.7 3.869C6.692 2.4 5.6 1.6 4.2 1.627z M4.543 3.657c0 0.166-0.134 0.3-0.299 0.3 c-0.166 0-0.3-0.134-0.3-0.3V3.001c0-0.166 0.134-0.3 0.3-0.3c0.166 0 0.3 0.1 0.3 0.3V3.657z"/>
	<g>
		<path fill="#252E2F" d="M8.976 5.684V5.415L9.342 5.38c0.078-0.01 0.093-0.024 0.093-0.098V2.549c0-0.073-0.015-0.093-0.093-0.098 L8.976 2.418V2.144h2.894v0.812L11.518 2.94l-0.083-0.381c-0.01-0.049-0.035-0.063-0.098-0.063H9.904v1.222h1.594v0.357H9.904 v1.257h1.56c0.063 0 0.083-0.004 0.093-0.054l0.093-0.425h0.347v0.831H8.976z"/>
		<path fill="#252E2F" d="M14.417 5.684l-0.748-0.949l-0.562 0.636l0.411 0.044v0.269h-1.242V5.415l0.308-0.048 c0.059-0.01 0.088-0.035 0.132-0.078l0.743-0.827l-0.694-0.846c-0.039-0.049-0.098-0.093-0.171-0.093 c-0.063 0-0.103 0.02-0.152 0.049L12.3 3.283c0.123-0.078 0.318-0.161 0.46-0.161c0.19 0 0.3 0.1 0.4 0.19l0.65 0.8 l0.553-0.655L13.943 3.44l0.053-0.269h1.11V3.44l-0.264 0.049c-0.068 0.014-0.098 0.049-0.147 0.093l-0.705 0.822l0.685 0.8 c0.044 0.1 0.1 0.1 0.2 0.127l0.273 0.044v0.269H14.417z"/>
		<path fill="#252E2F" d="M17.038 5.586c-0.225 0.082-0.494 0.156-0.782 0.156c-0.538 0-0.788-0.22-0.788-0.665V2.52h0.469v0.602 c0 0 0 0 0 0.049h0.86v0.342h-0.91v1.433c0 0.3 0.1 0.4 0.4 0.425c0.186 0 0.382-0.044 0.543-0.093 L17.038 5.586z"/>
		<path fill="#252E2F" d="M19.102 4.207c-0.01-0.514-0.377-0.724-0.744-0.724c-0.386 0-0.729 0.21-0.777 0.724H19.102z M19.492 5.523c-0.278 0.132-0.621 0.22-1.031 0.22c-0.959 0-1.384-0.592-1.384-1.331c0-0.836 0.587-1.29 1.276-1.29 c0.685 0 1.2 0.4 1.2 1.168c0 0.063-0.005 0.137-0.01 0.22h-1.996c0.019 0.5 0.3 0.8 0.9 0.8 c0.357 0 0.542-0.048 0.836-0.171L19.492 5.523z"/>
		<path fill="#252E2F" d="M20.754 5.283c0 0.1 0 0.1 0.1 0.098l0.385 0.034v0.269h-1.334V5.41l0.299-0.029 c0.131-0.014 0.088-0.156 0.088-0.269V3.63c0-0.054-0.016-0.088-0.074-0.103l-0.332-0.093l0.049-0.264h0.719l0.043 0.289h0.02 c0.274-0.171 0.522-0.337 0.993-0.337c0.679 0 0.9 0.4 0.9 1.027v1.134c0 0.1 0 0.1 0.1 0.098l0.337 0.034v0.269 h-0.899V4.266c0-0.528-0.196-0.758-0.601-0.758c-0.396 0-0.656 0.191-0.822 0.308V5.283z"/>
		<path fill="#252E2F" d="M24.363 5.743c-0.582 0-1.096-0.191-1.096-0.538c0-0.151 0.122-0.298 0.303-0.298 c0.176 0 0.3 0.1 0.3 0.288c0 0.088-0.029 0.143-0.054 0.162c0.137 0 0.3 0.1 0.6 0.1 c0.41 0 0.675-0.132 0.675-0.391c0-0.284-0.317-0.357-0.688-0.426c-0.461-0.088-0.988-0.186-0.988-0.733 c0-0.538 0.503-0.763 1.09-0.763c0.524 0 1 0.2 1 0.538c0 0.141-0.112 0.298-0.294 0.3 c-0.186 0-0.312-0.138-0.312-0.294c0-0.068 0.029-0.132 0.054-0.156c-0.103-0.049-0.279-0.074-0.416-0.074 c-0.459 0-0.65 0.171-0.65 0.382c0 0.3 0.3 0.3 0.7 0.411c0.45 0.1 1 0.2 1 0.8 C25.492 5.5 25 5.7 24.4 5.7"/>
		<path fill="#252E2F" d="M26.416 2.632c-0.216 0-0.348-0.117-0.348-0.318c0-0.2 0.132-0.313 0.348-0.313 c0.225 0 0.4 0.1 0.4 0.313C26.768 2.5 26.6 2.6 26.4 2.6 M25.766 5.684V5.41l0.405-0.029 c0.079-0.005 0.089-0.024 0.089-0.098V3.63c0-0.054-0.015-0.088-0.074-0.103l-0.332-0.093l0.049-0.264h0.827v2.112 c0 0.1 0 0.1 0.1 0.098l0.391 0.034v0.269H25.766z"/>
		<path fill="#252E2F" d="M28.577 5.743c-0.582 0-1.095-0.191-1.095-0.538c0-0.151 0.121-0.298 0.303-0.298 c0.176 0 0.3 0.1 0.3 0.288c0 0.088-0.029 0.143-0.054 0.162c0.137 0 0.3 0.1 0.6 0.1 c0.411 0 0.675-0.132 0.675-0.391c0-0.284-0.318-0.357-0.689-0.426c-0.46-0.088-0.987-0.186-0.987-0.733 c0-0.538 0.503-0.763 1.09-0.763c0.523 0 1 0.2 1 0.538c0 0.141-0.111 0.298-0.293 0.3 c-0.186 0-0.313-0.138-0.313-0.294c0-0.068 0.03-0.132 0.055-0.156c-0.102-0.049-0.279-0.074-0.416-0.074 c-0.46 0-0.65 0.171-0.65 0.382c0 0.3 0.3 0.3 0.7 0.411c0.45 0.1 1 0.2 1 0.8 C29.707 5.5 29.2 5.7 28.6 5.7"/>
		<path fill="#252E2F" d="M30.027 3.19h-0.15c-0.009 0-0.011-0.003-0.011-0.013V3.139c0-0.008 0.002-0.013 0.011-0.013h0.378 c0.01 0 0 0 0 0.013v0.038c0 0.01-0.001 0.013-0.011 0.013h-0.154v0.465c0 0.01-0.005 0.013-0.015 0.013h-0.043 c-0.011 0-0.016-0.003-0.016-0.013V3.19z"/>
		<path fill="#252E2F" d="M30.763 3.252h-0.004c-0.004 0.005-0.04 0.1-0.043 0.105c-0.01 0.024-0.077 0.192-0.088 0.2 c-0.009 0.023-0.017 0.031-0.04 0.031h-0.024c-0.024 0-0.031-0.007-0.041-0.031c-0.011-0.024-0.079-0.191-0.09-0.215L30.394 3.3 h-0.005v0.394c0 0.01-0.004 0.013-0.015 0.013h-0.039c-0.01 0-0.015-0.003-0.015-0.013v-0.49c0-0.024 0.008-0.038 0.038-0.038 h0.021c0.021 0 0 0 0 0.03l0.106 0.264c0.004 0 0 0.1 0 0.117h0.002 c0.004-0.009 0.041-0.106 0.045-0.114c0.013-0.029 0.1-0.247 0.107-0.267c0.011-0.025 0.021-0.03 0.043-0.03h0.021 c0.031 0 0 0 0 0.038v0.49c0 0.01-0.004 0.013-0.015 0.013h-0.038c-0.011 0-0.015-0.003-0.015-0.013V3.252z"/>
	</g>
	<g>
		<path fill="#00BAE9" d="M20.664 8.112c0 0.135-0.025 0.277-0.074 0.425c-0.05 0.148-0.134 0.34-0.25 0.574l-2.673 5.5 c-0.153 0.062-0.343 0.107-0.567 0.135c-0.225 0.026-0.441 0.04-0.648 0.04c-0.369 0-0.644-0.056-0.823-0.169 c-0.18-0.112-0.315-0.357-0.405-0.735l-0.634-2.646l-1.485 3.375c-0.153 0.062-0.34 0.107-0.561 0.1 c-0.221 0.026-0.434 0.04-0.641 0.04c-0.369 0-0.64-0.069-0.811-0.209c-0.171-0.14-0.302-0.399-0.392-0.776L9.513 8.7 L9.054 8.706C9.026 8.6 9 8.6 9 8.47C8.968 8.4 9 8.3 9 8.22c0-0.288 0.119-0.488 0.357-0.601 c0.239-0.113 0.664-0.169 1.276-0.169c0.297 0 0.5 0.1 0.6 0.176c0.112 0.1 0.2 0.3 0.2 0.486l0.972 4.6 l1.674-3.55L13.806 7.95c0.099-0.144 0.247-0.263 0.445-0.358c0.198-0.094 0.486-0.142 0.864-0.142 c0.278 0 0.5 0.1 0.6 0.182c0.13 0.1 0.2 0.3 0.3 0.533l0.932 4.536L19.3 7.518c0.1-0.027 0.203-0.047 0.311-0.061 c0.108-0.014 0.212-0.021 0.311-0.021c0.261 0 0.5 0.1 0.6 0.176C20.604 7.7 20.7 7.9 20.7 8.112z"/>
		<path fill="#00BAE9" d="M25.456 10.745c0 0.576-0.198 1.012-0.595 1.31c-0.396 0.297-1.039 0.445-1.931 0.4 c-0.161 0-0.295-0.005-0.398-0.014c-0.103-0.009-0.223-0.027-0.358-0.054c0.009 0.2 0 0.4 0.1 0.5 c0.067 0.1 0.2 0.2 0.3 0.33c0.108 0.1 0.2 0.1 0.4 0.169c0.135 0 0.3 0 0.4 0 c0.297 0 0.565-0.032 0.804-0.095c0.238-0.064 0.487-0.153 0.749-0.271c0.126 0 0.2 0.1 0.3 0.2 s0.101 0.3 0.1 0.412c0 0.306-0.198 0.559-0.595 0.763c-0.396 0.202-1.003 0.304-1.822 0.3 c-0.378 0-0.729-0.039-1.053-0.115c-0.324-0.076-0.604-0.204-0.837-0.385c-0.234-0.18-0.419-0.418-0.554-0.715 c-0.135-0.298-0.202-0.662-0.202-1.094c0-1.053 0.274-1.884 0.823-2.491c0.549-0.607 1.336-0.911 2.362-0.911 c0.648 0 1.1 0.1 1.5 0.439C25.277 9.9 25.5 10.3 25.5 10.745z M23.862 10.907c0-0.126-0.036-0.239-0.107-0.338 c-0.072-0.099-0.216-0.148-0.433-0.148c-0.261 0-0.485 0.102-0.675 0.304c-0.188 0.202-0.315 0.475-0.378 0.8 c0.099 0 0.2 0 0.3 0.034c0.095 0 0.2 0 0.3 0.007c0.342 0 0.589-0.063 0.742-0.189 C23.786 11.3 23.9 11.1 23.9 10.907z"/>
		<path fill="#00BAE9" d="M31.72 11.434c0 0.531-0.086 1.008-0.257 1.431c-0.171 0.423-0.409 0.783-0.715 1.1 c-0.307 0.297-0.673 0.526-1.101 0.689c-0.428 0.162-0.897 0.243-1.41 0.243c-0.46 0-0.844-0.036-1.154-0.108 c-0.311-0.071-0.557-0.173-0.736-0.304c-0.18-0.13-0.299-0.292-0.357-0.486c-0.059-0.193-0.074-0.411-0.048-0.654l0.757-5.751 c0.054-0.423 0.159-0.704 0.316-0.844c0.158-0.14 0.407-0.209 0.75-0.209c0.188 0 0.4 0 0.5 0.1 c0.175 0 0.3 0.1 0.4 0.202l-0.433 3.173c0.153-0.226 0.331-0.409 0.533-0.554c0.203-0.145 0.511-0.216 0.925-0.216 c0.676 0 1.2 0.2 1.5 0.587C31.565 10.2 31.7 10.7 31.7 11.434z M29.844 11.703c0-0.486-0.066-0.812-0.196-0.979 c-0.131-0.167-0.34-0.25-0.628-0.25c-0.171 0-0.33 0.034-0.479 0.102c-0.149 0.067-0.269 0.16-0.358 0.276l-0.337 2.4 c-0.019 0.1 0 0.2 0.1 0.277c0.059 0.1 0.2 0.1 0.5 0.087c0.387 0 0.723-0.157 1.006-0.472 C29.701 12.8 29.8 12.3 29.8 11.703z"/>
		<path fill="#00BAE9" d="M36.459 8.058c0 0.144-0.062 0.252-0.183 0.324c-0.121 0.072-0.322 0.103-0.601 0.094h-0.662l-0.715 5.7 l1.255-0.013c0.019 0 0 0.1 0 0.142c0.014 0.1 0 0.1 0 0.169c0 0.152-0.061 0.254-0.182 0.3 c-0.122 0.049-0.322 0.074-0.601 0.074l-2.606-0.027c-0.036-0.062-0.055-0.13-0.055-0.202c0-0.081 0.014-0.148 0.041-0.203 c0.026-0.054 0.083-0.097 0.169-0.128c0.085-0.031 0.211-0.057 0.378-0.074c0.166-0.018 0.389-0.027 0.668-0.027 c0.009-0.071 0.027-0.218 0.054-0.438c0.027-0.221 0.057-0.464 0.088-0.729c0.031-0.265 0.063-0.526 0.095-0.782 c0.031-0.257 0.056-0.457 0.074-0.601c0.027-0.189 0.059-0.424 0.095-0.702c0.035-0.279 0.074-0.567 0.114-0.864 c0.041-0.297 0.079-0.585 0.115-0.864c0.035-0.279 0.067-0.513 0.094-0.702L33.016 8.45c-0.035-0.036-0.056-0.074-0.06-0.115 c-0.005-0.041-0.007-0.083-0.007-0.128c0-0.135 0.057-0.236 0.169-0.304c0.112-0.067 0.357-0.101 0.736-0.101h1.917l0.607-0.014 c0.018 0 0 0.1 0.1 0.122C36.449 8 36.5 8 36.5 8.058z"/>
		<path fill="#00BAE9" d="M43.006 14.646c-0.046 0.036-0.115 0.069-0.21 0.101c-0.094 0.032-0.223 0.048-0.385 0 c-0.126 0-0.216-0.021-0.269-0.061c-0.054-0.041-0.104-0.097-0.148-0.169l-3.28-5.589l-0.716 5.8 c-0.063 0.045-0.167 0.067-0.311 0.067c-0.153 0-0.259-0.029-0.317-0.088c-0.059-0.059-0.088-0.15-0.088-0.276 c0-0.045 0.002-0.097 0.007-0.155c0.005-0.059 0.012-0.124 0.021-0.196c0.009-0.062 0.022-0.173 0.04-0.331 c0.019-0.157 0.041-0.342 0.068-0.553c0.026-0.212 0.056-0.446 0.087-0.702c0.032-0.257 0.065-0.52 0.102-0.79 c0.072-0.513 0.144-1.048 0.216-1.606c0.072-0.558 0.148-1.107 0.229-1.647l-0.877-0.014c-0.036-0.062-0.055-0.139-0.055-0.229 c0-0.054 0.014-0.108 0.041-0.162c0.027-0.054 0.081-0.099 0.162-0.135c0.081-0.036 0.197-0.065 0.351-0.088 c0.153-0.022 0.351-0.034 0.594-0.034c0.262 0 0.5 0 0.6 0.128c0.126 0.1 0.2 0.2 0.3 0.29l3.24 5.414L43.1 7.8 c0.045-0.045 0.153-0.067 0.324-0.067c0.153 0 0.3 0.1 0.3 0.155c0.05 0.1 0.1 0.2 0 0.412L43.006 14.646z"/>
		<path fill="#00BAE9" d="M50.781 8.031c0 0.045-0.002 0.083-0.007 0.115c-0.004 0.032-0.016 0.07-0.033 0.115l-3.187 2.8 l2.35 3.146l0.526-0.04c0.062 0.1 0.1 0.1 0.1 0.229c0 0.144-0.074 0.256-0.224 0.3 c-0.148 0.081-0.411 0.122-0.789 0.122c-0.145 0-0.262-0.059-0.352-0.176c-0.026-0.027-0.094-0.115-0.202-0.264 c-0.108-0.148-0.241-0.332-0.398-0.553c-0.157-0.221-0.326-0.457-0.506-0.709c-0.181-0.252-0.349-0.488-0.507-0.709 c-0.157-0.221-0.292-0.414-0.404-0.58c-0.113-0.167-0.183-0.273-0.21-0.317l-0.675 0.554l-0.324 2.7 c-0.045 0.018-0.104 0.033-0.175 0.047c-0.072 0.014-0.158 0.021-0.257 0.021c-0.153 0-0.261-0.029-0.324-0.088 c-0.062-0.059-0.09-0.15-0.081-0.276c0-0.045 0-0.1 0-0.162c0-0.064 0.005-0.131 0.014-0.203l0.756-5.616L44.99 8.4 c-0.036-0.062-0.055-0.139-0.055-0.229c0-0.054 0.014-0.108 0.041-0.162c0.027-0.054 0.081-0.099 0.162-0.135 c0.081-0.036 0.197-0.065 0.351-0.088c0.153-0.022 0.352-0.034 0.594-0.034c0.153 0 0.3 0 0.4 0 c0.094 0 0.2 0 0.2 0.047c0.045 0 0.1 0.1 0.1 0.087c0.014 0 0 0.1 0 0.135l-0.392 3.1 l3.51-3.132c0.126-0.099 0.229-0.168 0.311-0.209c0.081-0.041 0.171-0.061 0.27-0.061c0.126 0 0.2 0 0.3 0.1 C50.759 7.9 50.8 8 50.8 8.031z"/>
	</g>
	<g>
		<path fill="#00BAE9" d="M51.811 8.935c-0.334 0-0.571-0.249-0.571-0.58c0-0.348 0.263-0.58 0.571-0.58 c0.305 0 0.6 0.2 0.6 0.58C52.376 8.7 52.1 8.9 51.8 8.935z M51.811 7.876c-0.252 0-0.448 0.197-0.448 0.5 c0 0.3 0.2 0.5 0.4 0.48c0.248 0 0.442-0.194 0.442-0.48C52.253 8.1 52.1 7.9 51.8 7.876z M51.696 8.687h-0.107 V8.044h0.245c0.154 0 0.2 0.1 0.2 0.186c0 0.116-0.07 0.164-0.167 0.175l0.18 0.282h-0.12l-0.165-0.274h-0.099V8.687z M51.813 8.324c0.08 0 0.15-0.01 0.15-0.102c0-0.077-0.077-0.086-0.141-0.086h-0.127v0.188H51.813z"/>
	</g>
</g>
</svg>
